<?xml version="1.0" encoding="utf-8"?>
<!-- Generator: Adobe Illustrator 27.5.0, SVG Export Plug-In . SVG Version: 6.00 Build 0)  -->
<svg version="1.1" id="Слой_1" xmlns="http://www.w3.org/2000/svg" xmlns:xlink="http://www.w3.org/1999/xlink" x="0px" y="0px"
	 viewBox="0 0 3061.716 2000" style="enable-background:new 0 0 3061.716 2000;" xml:space="preserve">
<g>
	<rect x="0" y="-0.001" style="fill:#FFFFFF;" width="3061.716" height="2000"/>
	<path style="fill:#E3EAFF;" d="M258.975,1822.93c-226.896-340.109-97.398-682.076,164.03-876.155
		c265.752-197.288-34.261-605.452,494.676-771.54c273.628-85.922,514.253,148.401,782.457,158.582
		c240.327,9.123,488.938-197.521,732.946-101.794c163.178,55.104,326.297,209.752,314.13,394.657
		c-6.286,95.548-61.942,208.657-4.312,281.243c243.229,306.349,218.158,574.308,122.834,910.715
		C2865.761,1818.627,258.975,1822.93,258.975,1822.93z"/>
	<path style="fill:#95A6DB;" d="M2878.979,1837.359H173.838c-6.537,0-11.837-5.961-11.837-13.313l0,0
		c0-7.354,5.3-13.314,11.837-13.314h2705.142c6.537,0,11.837,5.961,11.837,13.314l0,0
		C2890.816,1831.398,2885.517,1837.359,2878.979,1837.359z"/>
	<g>
		<path style="fill:#95A6DB;" d="M2873.693,1364.836c0,0,24.226,26.404,10.611,87.123c-13.886,61.872,0.489,99.229,0.489,99.229
			l-19.789,27.188c0,0-18.934-57.517-5.41-106.707C2876.596,1410.123,2873.693,1364.836,2873.693,1364.836z"/>
		<path style="fill:#95A6DB;" d="M2951.519,1364.063c0,0,10.634,24.179-11.079,66.653c-22.212,43.271-20.305,73.724-20.305,73.724
			l-16.743,21.576c0,0-2.855-51.384,16.464-85.337C2943.975,1398.203,2951.519,1364.063,2951.519,1364.063z"/>
		<path style="fill:#95A6DB;" d="M2833.586,1435.769c0,0-18.859,21.169-17.973,88.323c0.714,54.726,19.093,79.048,19.335,112.632
			l23.743-42.268c-3.468-23.033-21.54-34.43-24.592-84.024C2831.228,1464.002,2833.586,1435.769,2833.586,1435.769z"/>
		<path style="fill:#95A6DB;" d="M2676.697,1676.913c0,0-3.846,28.171,34.32,83.359c31.111,45.039,58.597,45.433,66.336,55.686
			l5.141-27.735c-18.485-16.181-33.55-10.095-63.738-49.561C2690.473,1701.614,2676.697,1676.913,2676.697,1676.913z"/>
		<path style="fill:#95A6DB;" d="M2790.326,1488.191c0,0-4.79,48.708-1.481,78.244c4.625,41.993,25.952,59.966,33.759,102.522
			l-15.981,32.705c0,0-30.387-39.341-34.02-91.387C2766.496,1522.94,2790.326,1488.191,2790.326,1488.191z"/>
		<path style="fill:#95A6DB;" d="M2717.41,1527.883c10.774,25.258,17.795,51.956,20.842,79.245
			c8.638,82.763,62.867,130.94,62.867,130.94l-10.3,22.565c0,0-61.975-30.004-67.276-99.714
			C2718.021,1587.245,2717.41,1527.883,2717.41,1527.883z"/>
		<path style="fill:#95A6DB;" d="M2858.323,1600.563c0,0,17.364-11.206,98.503-19.782c51.999-5.478,32.716-21.115,83.771-17.948
			c-35.499,11.763-41.598,41.151-89.667,49.058c-38.447,6.298-76.344,15.599-113.34,27.815L2858.323,1600.563z"/>
		<path style="fill:#95A6DB;" d="M3023.196,1615.688c0,0-21.738,46.246-92.796,57.76c-43.713,7.193-85.944,21.526-125.006,42.425
			l12.767-40.185c0,0,23.984-27.855,99.02-32.729C2968.732,1639.597,3023.196,1615.688,3023.196,1615.688z"/>
		<path style="fill:#95A6DB;" d="M2997.224,1691.94c0,0-21.738,46.247-92.796,57.758c-43.712,7.195-85.943,21.529-125.005,42.425
			l12.766-40.185c0,0,23.985-27.855,99.02-32.729C2942.76,1715.848,2997.224,1691.94,2997.224,1691.94z"/>
		<path style="fill:#95A6DB;" d="M3042.347,1476.1c0,0-17.527,25.467-62.707,31.054c-45.818,5.645-76.383,23.017-76.383,23.017
			l9.46-16.119c0,0,15.159-17.606,62.586-20.704C3007.914,1491.203,3042.347,1476.1,3042.347,1476.1z"/>
		<path style="fill:#95A6DB;" d="M2889.392,1556.188c0,0,33.577-11.613,85.187-19.106c32.543-4.83,70.43-34.057,70.43-34.057
			s-21.917,53.429-71.281,57.658c-56.607,4.833-108.899,24.976-108.899,24.976L2889.392,1556.188z"/>
		<path style="fill:#95A6DB;" d="M2910.624,1520.118c0,0,17.974-51.565,63.848-71.788c27.086-12.216,51.94-28.869,73.538-49.273
			c0,0-15.604,52.529-59.709,66.552c-40.679,13.053-62.981,47.203-62.981,47.203L2910.624,1520.118z"/>
		<path style="fill:#95A6DB;" d="M2781.42,1815.856l-7.914-1.306c8.057-48.81,57.573-212.902,145.777-309.73l5.93,5.406
			C2838.239,1605.719,2789.393,1767.67,2781.42,1815.856z"/>
	</g>
	<g>
		<path style="fill:#95A6DB;" d="M262.711,1314.383c0,0-27.906,27.865-15.857,95.283c12.292,68.697-5.31,109.082-5.31,109.082
			l20.452,30.845c0,0,23.582-62.33,11.079-117.064C257.342,1364.036,262.711,1314.383,262.711,1314.383z"/>
		<path style="fill:#95A6DB;" d="M177.178,1309.79c0,0-12.855,26.072,8.976,73.819c22.344,48.646,18.78,82.036,18.78,82.036
			l17.371,24.529c0,0,5.612-56.359-13.997-94.621C183.831,1347.69,177.178,1309.79,177.178,1309.79z"/>
		<path style="fill:#95A6DB;" d="M303.398,1394.303c0,0,19.718,24.183,15.515,97.979c-3.417,60.137-24.794,85.999-26.675,122.91
			l-24.074-47.615c4.92-25.16,25.34-36.82,31.08-91.204C304.635,1425.461,303.398,1394.303,303.398,1394.303z"/>
		<path style="fill:#95A6DB;" d="M464.307,1666.992c0,0,2.871,31.159-41.745,90.005c-36.373,48.024-66.614,47.138-75.614,58.038
			l-4.32-30.743c21.104-16.903,37.374-9.486,72.465-51.43C447.972,1693.488,464.307,1666.992,464.307,1666.992z"/>
		<path style="fill:#95A6DB;" d="M348.442,1454.023c0,0,2.927,53.785-2.133,86.102c-7.104,45.951-31.418,64.687-42.049,111.103
			l15.999,36.73c0,0,35.303-41.797,41.802-98.846C372.975,1493.378,348.442,1454.023,348.442,1454.023z"/>
		<path style="fill:#95A6DB;" d="M426.707,1501.173c-13.06,27.254-22.065,56.271-26.727,86.13
			c-13.478,90.584-78.457,143.601-78.457,143.601l13.276,22.654c0,0,69.587-30.011,78.768-106.403
			C423.182,1566.411,426.707,1501.173,426.707,1501.173z"/>
		<path style="fill:#95A6DB;" d="M268.275,1574.308c0,0-18.554-13.154-107.354-26.487c-56.911-8.524-34.957-24.791-91.245-23.763
			c38.466,14.639,43.759,47.248,96.231,58.252c41.972,8.773,83.192,20.819,123.282,36.033L268.275,1574.308z"/>
		<path style="fill:#95A6DB;" d="M86.267,1583.011c0,0,21.677,51.894,99.254,67.969c47.717,10.013,93.462,27.804,135.405,52.66
			l-12.105-44.799c0,0-25.032-31.781-107.3-40.749C145.001,1611.918,86.267,1583.011,86.267,1583.011z"/>
		<path style="fill:#95A6DB;" d="M111.157,1668.1c0,0,21.678,51.896,99.254,67.971c47.716,10.012,93.462,27.804,135.405,52.658
			l-12.104-44.798c0,0-25.032-31.78-107.301-40.747C169.892,1697.009,111.157,1668.1,111.157,1668.1z"/>
		<path style="fill:#95A6DB;" d="M71.923,1428.61c0,0,18.047,28.843,67.454,37.16c50.107,8.408,82.878,28.979,82.878,28.979
			l-9.627-18.18c0,0-15.82-20.087-67.818-25.772C109.056,1446.873,71.923,1428.61,71.923,1428.61z"/>
		<path style="fill:#95A6DB;" d="M236.248,1524.021c0,0-36.36-14.381-92.744-25.103c-35.551-6.876-75.803-40.832-75.803-40.832
			s21.529,59.801,75.604,66.825c62.009,8.034,118.537,32.697,118.537,32.697L236.248,1524.021z"/>
		<path style="fill:#95A6DB;" d="M214.639,1483.344c0,0-17.284-57.563-66.75-82.006c-29.194-14.733-55.722-34.238-78.487-57.713
			c0,0,14.63,58.509,62.449,76.048c44.102,16.309,66.981,54.93,66.981,54.93L214.639,1483.344z"/>
		<path style="fill:#95A6DB;" d="M342.48,1814.728l8.764-1.056c-6.512-54.055-53.065-236.86-145.392-347.564l-6.781,5.659
			C290.109,1580.943,336.031,1761.36,342.48,1814.728z"/>
	</g>
	<g>
		<g>
			<path style="fill:#4364CC;" d="M1607.325,1594.355l-46.816,217.436c-1.248,5.802-3.33,9.275-5.559,9.275l0,0
				c-4.127,0-7.277-11.602-6.631-24.423l10.193-202.288H1607.325z"/>
			<path style="fill:#4364CC;" d="M2799.479,1594.355l46.815,217.436c1.25,5.802,3.332,9.275,5.56,9.275l0,0
				c4.127,0,7.277-11.602,6.632-24.423l-10.194-202.288H2799.479z"/>
			<path style="fill:#4364CC;" d="M2436.532,1594.355l46.816,217.436c1.249,5.802,3.33,9.275,5.559,9.275l0,0
				c4.127,0,7.277-11.602,6.631-24.423l-10.192-202.288H2436.532z"/>
			<path style="fill:#768FDB;" d="M2095.956,1633.538h-504.562c-26.111,0-47.277-21.167-47.277-47.277v-275.781
				c0-20.303,16.458-36.762,36.761-36.762h515.078V1633.538z"/>
			<path style="fill:#4364CC;" d="M2200.654,1633.538h-504.563c-26.11,0-47.277-21.167-47.277-47.277v-275.781
				c0-20.303,16.459-36.762,36.762-36.762h515.078V1633.538z"/>
			<path style="fill:#768FDB;" d="M2789.519,1364.717h-892.882v-191.335c0-19.487,15.798-35.285,35.285-35.285h857.597V1364.717z"/>
			<path style="fill:#95ADF5;" d="M2850.25,1358.558H1690.994c-23.806,0-43.104,19.298-43.104,43.104v59.856h1202.36V1358.558z"/>
			
				<rect x="1647.89" y="1449.555" transform="matrix(-1 -1.224647e-16 1.224647e-16 -1 4498.1396 3083.3564)" style="fill:#768FDB;" width="1202.36" height="184.247"/>
			<path style="fill:#4364CC;" d="M2850.143,1364.717h-121.246v-226.62h85.961c19.487,0,35.285,15.798,35.285,35.285V1364.717z"/>
		</g>
		<g>
			<path style="fill:#F37A50;" d="M1646.354,1764.835l-38.891,12.664l-18.511-34.16c1.599-1.354,2.628-24.95,3.024-42.886
				l64.444,4.545C1654.49,1723.197,1650.786,1747.077,1646.354,1764.835z"/>
			<g>
				<g>
					<path style="fill:#2C2858;" d="M1577.928,1790.269c0,0-15.214-22.088-32.646-22.378c0,0-32.585,4.059-43.14,18.579
						c-3.317,4.562-1.316,13.688,0.503,19.496c1.137,3.627,4.527,7.418,14.398,9.813c14.58,3.539,34.023,5.008,68.891-6.56
						c41.828-13.873,48.926-9.784,64.317-15.902c15.954-6.342,9.385-25.921,3.642-45.032
						C1653.894,1748.285,1643.613,1772.829,1577.928,1790.269z"/>
				</g>
				<g>
					<g>
						<path style="fill:#4364CC;" d="M1587.652,1739.963c0,0-18.229,12.774-42.69,20.137c-13.685,4.116-50.249,13.774-42.636,38.075
							c1.136,3.627,4.527,7.418,14.397,9.814c14.58,3.54,34.022,5.005,68.891-6.56c41.829-13.875,48.925-9.785,64.318-15.903
							c15.952-6.341,6.919-28.458,1.177-47.57l0,0c-0.074,4.952-1.491,18.032-30.292,31.586
							C1612.22,1773.589,1616.835,1734.173,1587.652,1739.963z"/>
					</g>
				</g>
			</g>
			<path style="fill:#F37A50;" d="M1800.688,1760.3l-37.904,15.37l-20.868-32.774c1.5-1.463,0.865-25.072,0-42.991h64.603
				C1805.873,1718.193,1803.856,1742.273,1800.688,1760.3z"/>
			<path style="fill:#8A284C;" d="M1836.769,1323.927c-87.287,22.039-208.968,87.655-220.478,101.501
				c-23.776,28.603-25.688,121.946-26.751,287.513h70.767c19.953-130.617,45.541-188.527,46.438-241.093
				c0,0,68.081,0.165,167.428-45.993c48.975-22.753,99.849-48.884,81.739-93.289
				C1941.484,1297.184,1919.998,1302.914,1836.769,1323.927z"/>
			<path style="fill:#E62552;" d="M1933.421,1315.907c-72.911,12.485-165.228,103.028-176.738,116.876
				c-23.775,28.603-13.705,120.667-14.768,286.234h66.804c6.764-86.191,40.133-184.46,35.843-247.126
				c0,0,71.754-10.642,171.101-56.8c48.974-22.754,98.698-20.492,86.832-77.381
				C2094.69,1300.306,2018.03,1301.418,1933.421,1315.907z"/>
			<g>
				<g>
					<g>
						<g>
							<path style="fill:#F37A50;" d="M1717.234,1018.585c18.439-18.604,6.344-37.681,6.344-37.681
								c10.118-2.171,63.503,78.699,86.522,130.09c40.152-40.47,110.903-95.12,130.034-98.306c0,0,25.81-6.938,35.085,24.266
								c8.277,27.851-24.006,47.588-24.006,47.588s-138.1,97.497-158.522,88.831
								C1760.909,1159.888,1732.146,1043.846,1717.234,1018.585z"/>
						</g>
					</g>
				</g>
				<g>
					<g>
						<g>
							<g>
								<path style="fill:#F37A50;" d="M1688.399,1016.282c11.269,0.689,25.205-4.881,29.547,5.222l22.24-10.844l1.346-13.412
									c-19.111-30.62-65.694-39.31-70.307-39.716c-11.983-1.053-17.547-2.288-18.482-0.687
									c-0.937,1.602-3.872,12.271,13.515,14.359c21.821,2.62,7.336,20.063-36.932,3.458c-11.083-4.158-31.944,1.239-24.399,9.34
									C1613.24,992.929,1637.126,1013.157,1688.399,1016.282z"/>
							</g>
						</g>
					</g>
				</g>
			</g>
			<path style="fill:#2C2858;" d="M1933.496,1035.479c-34.372-4.771-89.024-19.533-65.971-72.49
				c23.054-52.957,26.464-32.69,2.847-86.107c-23.616-53.416,6.84-105.799,47.092-102.68c40.25,3.119,56.406,31.743,101.22,14.161
				c44.813-17.583,92.612,17.705,83.09,59.077c-9.523,41.372-13.157,61.094,7.603,78.494c20.76,17.4,99.183,24.292,79.017,80.75
				c-20.168,56.459-34.899,56.37-18.813,79.725c16.087,23.355-2.368,57.719-45.922,62.767
				c-43.554,5.046-85.633-2.931-111.378-47.312C1986.535,1057.485,1933.496,1035.479,1933.496,1035.479z"/>
			<path style="fill:#3F964F;" d="M1859.957,1055.538c29.125-17.64,77.332-67.016,113.979-52.387
				c36.647,14.628,24.209,58.953,6.672,77.273c-17.537,18.323-72.002,60.261-72.002,60.261L1859.957,1055.538z"/>
			<path style="fill:#0E6A41;" d="M2098.069,1327.509c-16.314-84.164-12.323-83.979-19.101-123.588
				c-16.746-97.89,69.47-176.474-56.558-215.266l-55.814,12.362c-53.625,26.479-64.111,74.084-69.395,106.58
				c-10.058,61.849-1.27,154.173-1.27,154.173l-21.095,52.727c0,0,14.641,14.685,84.018,27.788
				C2028.232,1355.392,2098.069,1327.509,2098.069,1327.509z"/>
			<path style="fill:#F37A50;" d="M2110.852,1077.507c13.389,49.577,14.825,213.517,3.468,228.211l-57.496-31.882
				c0,0-26.623-170.675-29.67-199.217C2021.768,1025.206,2089.147,996.523,2110.852,1077.507z"/>
			<path style="fill:#3F964F;" d="M2026.103,1155.706c-5.34-37.679-12.455-109.707,19.167-133.312
				c31.621-23.602,61.893,5.16,68.349,29.686c6.458,24.527,13.757,92.878,13.757,92.878L2026.103,1155.706z"/>
			<path style="fill:#F37A50;" d="M2044.545,904.379c-1.189,44.5-30.485,79.817-65.436,78.884
				c-34.949-0.935-62.318-37.766-61.13-82.264c1.189-44.499,30.485-79.816,65.434-78.883
				C2018.364,823.05,2045.732,859.88,2044.545,904.379z"/>
			<path style="fill:#F37A50;" d="M2033.145,930.095l-48.039,45.954c0,0,0.259,25.469-0.514,33.913
				c-1.595,17.427,19.276,20.482,33.488,6.841c14.213-13.643,15.5-28.147,15.5-28.147L2033.145,930.095z"/>
			<path style="fill:#2C2858;" d="M1910.756,885.628c15.995-1.968,49.454-11.892,58.755-29.232
				c15.166,28.015,58.793,48.509,92.727,55.271c-5.233-30.927-17.385-87.284-77.302-99.1
				C1937.864,803.285,1910.756,885.628,1910.756,885.628z"/>
			<path d="M1935.18,911.115c-0.843,3.251-4.162,5.203-7.412,4.36c-3.251-0.844-5.201-4.162-4.358-7.413s4.162-5.203,7.411-4.358
				C1934.071,904.548,1936.022,907.865,1935.18,911.115z"/>
			<path d="M1985.082,910.479c-0.912,3.518-4.506,5.631-8.024,4.719c-3.519-0.912-5.631-4.505-4.718-8.023
				c0.912-3.519,4.505-5.631,8.023-4.719C1983.881,903.369,1985.994,906.961,1985.082,910.479z"/>
			<g>
				<path style="fill:#2C2858;" d="M1991.074,903.642c-0.485-0.125-0.933-0.411-1.257-0.845c-4.698-6.28-13.705-5.793-13.796-5.788
					c-1.258,0.079-2.347-0.877-2.429-2.135c-0.083-1.259,0.866-2.347,2.125-2.432c0.468-0.032,11.557-0.688,17.766,7.614
					c0.756,1.012,0.551,2.445-0.461,3.203C1992.441,903.692,1991.725,903.81,1991.074,903.642z"/>
			</g>
			<g>
				<path style="fill:#2C2858;" d="M1921.125,902.949c-0.238-0.062-0.47-0.161-0.687-0.305c-1.055-0.697-1.346-2.116-0.65-3.171
					c5.405-8.193,14.417-7.174,14.797-7.126c1.251,0.156,2.145,1.299,1.987,2.554c-0.154,1.251-1.292,2.139-2.542,1.989
					c-0.296-0.032-6.62-0.658-10.42,5.103C1923.056,902.832,1922.046,903.189,1921.125,902.949z"/>
			</g>
			<path style="fill:#DE623C;" d="M1942.48,920.957c-2.553,4.048-4.686,8.113-7.386,10.735c-0.91,0.885-0.952,2.354-0.112,3.306
				c3.46,3.933,11.587,6.054,16.498,7.016c0.718,0.141,1.075-0.834,0.438-1.192c-5.393-3.028-7.967-5.552-9.128-6.991
				c-0.578-0.717-0.767-1.661-0.53-2.55c0.544-2.038,1.605-6.189,2.206-9.566C1944.671,920.549,1943.113,919.956,1942.48,920.957z"
				/>
			<path style="fill:#F37A50;" d="M2028.594,908.033c-6.755,7.997-6.924,18.962-0.379,24.488c6.546,5.527,17.326,3.525,24.079-4.474
				c6.755-7.996,6.925-18.962,0.379-24.488C2046.128,898.032,2035.348,900.034,2028.594,908.033z"/>
			<g>
				<path style="fill:#DE623C;" d="M2037.729,928.505c-0.334-0.086-0.652-0.251-0.93-0.491c-3.977-3.476-5.249-8.053-3.403-12.248
					c1.89-4.295,6.5-7.054,10.964-6.556c1.257,0.141,2.161,1.273,2.021,2.528c-0.14,1.257-1.271,2.16-2.527,2.021
					c-2.446-0.271-5.2,1.42-6.268,3.851c-1.027,2.336-0.237,4.806,2.225,6.955c0.951,0.832,1.05,2.279,0.218,3.231
					C2039.439,928.47,2038.541,928.715,2037.729,928.505z"/>
			</g>
			<path style="fill:#F37A50;" d="M2061.151,1269.161c16.598-5.26,55.065,30.778,53.724,36.716
				c-49.394,90.61-175.954,127.815-175.954,127.815l-22.118-16.705C1916.803,1416.987,2002.03,1345.223,2061.151,1269.161z"/>
			<path style="fill:#F37A50;" d="M1938.921,1433.692c-2.463,23.638-37.667,54.44-68.471,56.642
				c-30.804,2.2-20.902-27.504-8.801-35.205c12.102-7.7,29.528-15.367,25.216-21.437c-4.313-6.066-12.027-4.468-17.515-11.566
				c-4.898-6.337,19.089-18.841,47.452-5.139C1926.357,1424.204,1938.921,1433.692,1938.921,1433.692z"/>
			<path style="fill:#FFFFFF;" d="M1964.046,955.818c0.893,4.224-2.125,8.438-6.739,9.414c-4.613,0.975-9.078-1.657-9.971-5.881
				c-0.893-4.224,2.124-8.438,6.738-9.413C1958.688,948.964,1963.153,951.597,1964.046,955.818z"/>
			<g>
				<g>
					<path style="fill:#2C2858;" d="M1734.22,1790.485c0,0-16.73-20.962-34.141-20.026c0,0-32.218,6.34-41.727,21.569
						c-2.986,4.783-0.349,13.746,1.876,19.412c1.388,3.538,5.037,7.081,15.053,8.776c14.793,2.505,34.291,2.6,68.257-11.389
						c40.75-16.785,48.117-13.203,63.04-20.39c15.468-7.449,7.537-26.517,0.464-45.177
						C1807.042,1743.262,1798.515,1768.468,1734.22,1790.485z"/>
				</g>
				<g>
					<g>
						<path style="fill:#4364CC;" d="M1740.38,1739.621c0,0-17.285,14.026-41.167,23.089c-13.361,5.07-49.156,17.278-39.853,40.982
							c1.389,3.536,5.038,7.08,15.054,8.775c14.793,2.505,34.29,2.601,68.258-11.391c40.748-16.782,48.116-13.202,63.04-20.389
							c15.468-7.447,4.9-28.874-2.174-47.536l0,0c0.275,4.946-0.219,18.094-27.993,33.641
							C1767.251,1771.433,1769.082,1731.792,1740.38,1739.621z"/>
					</g>
				</g>
			</g>
		</g>
		<g id="c_1_">
			<path style="fill:#E86686;" d="M2311.438,999.789c-44.02,13.373-65.93,106.045-84.673,203.05
				c-30.023,59.038-52.448,104.436-81.258,163.964c26.896,6.093,49.169-10.845,49.169-10.845s68.402-62.853,100.127-131.989
				c7.261-15.822,9.737-47.661,13.85-61.813C2310.459,1117.798,2311.438,999.789,2311.438,999.789z"/>
			<path style="fill:#F37A50;" d="M2079.271,1765.025l-38.89,12.665l-18.512-34.163c1.6-1.354,2.627-24.949,3.024-42.885
				l64.443,4.545C2087.406,1723.388,2083.702,1747.266,2079.271,1765.025z"/>
			<g>
				<g>
					<path style="fill:#201D40;" d="M2010.844,1790.458c0,0-15.213-22.086-32.646-22.378c0,0-32.585,4.059-43.141,18.579
						c-3.316,4.563-1.315,13.688,0.505,19.497c1.136,3.626,4.526,7.418,14.397,9.814c14.581,3.539,34.023,5.006,68.891-6.561
						c41.828-13.874,48.925-9.784,64.318-15.903c15.953-6.341,9.384-25.92,3.641-45.03
						C2086.81,1748.476,2076.529,1773.02,2010.844,1790.458z"/>
				</g>
				<g>
					<g>
						<path style="fill:#2C2858;" d="M2020.567,1740.153c0,0-18.229,12.775-42.689,20.137
							c-13.684,4.116-50.249,13.775-42.636,38.075c1.136,3.625,4.526,7.418,14.398,9.814c14.579,3.539,34.022,5.006,68.891-6.561
							c41.828-13.875,48.925-9.784,64.317-15.902c15.952-6.342,6.919-28.458,1.176-47.57l0,0c-0.072,4.952-1.49,18.032-30.29,31.586
							C2045.136,1773.778,2049.751,1734.364,2020.567,1740.153z"/>
					</g>
				</g>
				<g>
					<path style="fill:#494C7F;" d="M2028.083,1769.542c-1.423,0-2.747-0.91-3.204-2.341c-3.811-11.879-16.354-11.898-16.884-11.898
						c-1.854,0.016-3.381-1.47-3.406-3.323c-0.023-1.854,1.447-3.379,3.301-3.411c6.224-0.12,19.114,3.215,23.401,16.576
						c0.568,1.771-0.406,3.667-2.178,4.234C2028.772,1769.489,2028.424,1769.542,2028.083,1769.542z"/>
				</g>
				<g>
					<path style="fill:#494C7F;" d="M2012.901,1776.835c-1.425,0-2.747-0.911-3.206-2.34c-3.811-11.879-16.353-11.898-16.884-11.899
						c-1.853,0.017-3.38-1.469-3.404-3.322c-0.025-1.854,1.446-3.379,3.301-3.411c6.224-0.121,19.113,3.215,23.4,16.576
						c0.568,1.771-0.407,3.668-2.178,4.234C2013.589,1776.782,2013.242,1776.835,2012.901,1776.835z"/>
				</g>
			</g>
			<path style="fill:#F37A50;" d="M2234.804,1769.61l-37.903,15.37l-20.867-32.774c1.498-1.464,5.415-26.576,4.551-44.495
				l60.052,1.504C2239.99,1727.504,2237.975,1751.584,2234.804,1769.61z"/>
			<path style="fill:#201D40;" d="M2269.685,1324.118c-87.287,22.038-208.968,87.653-220.478,101.5
				c-23.775,28.603-30.124,121.946-31.186,287.513h77.679c19.954-130.618,43.063-188.527,43.96-241.093
				c0,0,68.081,0.165,167.428-45.992c48.975-22.754,99.849-48.885,81.739-93.291
				C2374.4,1297.373,2352.914,1303.104,2269.685,1324.118z"/>
			<path style="fill:#2C2858;" d="M2369.032,1325.218c-72.911,12.484-165.228,103.028-176.738,116.875
				c-23.776,28.603-20.865,120.669-21.928,286.234l77.438,1.963c6.766-86.192,36.659-186.422,32.369-249.09
				c0,0,67.895-19.531,172.934-50.633c57.459-17.014,74.36-27.218,82.976-66.057c2.93-13.213,6.071-43.584-0.196-49.896
				C2508.147,1286.688,2438.045,1313.399,2369.032,1325.218z"/>
			<g>
				<g>
					<path style="fill:#201D40;" d="M2168.336,1799.795c0,0-16.729-20.962-34.139-20.025c0,0-32.219,6.34-41.727,21.569
						c-2.986,4.782-0.349,13.746,1.874,19.412c1.388,3.536,5.039,7.082,15.053,8.777c14.793,2.505,34.292,2.6,68.26-11.392
						c40.748-16.781,48.115-13.202,63.039-20.389c15.468-7.447,7.537-26.516,0.463-45.177
						C2241.159,1752.571,2232.633,1777.779,2168.336,1799.795z"/>
				</g>
				<g>
					<g>
						<path style="fill:#2C2858;" d="M2174.497,1748.932c0,0-17.285,14.026-41.168,23.088
							c-13.361,5.071-49.155,17.279-39.852,40.982c1.39,3.537,5.038,7.08,15.054,8.777c14.793,2.505,34.291,2.599,68.258-11.391
							c40.749-16.783,48.116-13.203,63.04-20.388c15.468-7.449,4.899-28.876-2.174-47.537l0,0
							c0.275,4.944-0.22,18.093-27.994,33.638C2201.368,1780.745,2203.2,1741.101,2174.497,1748.932z"/>
					</g>
				</g>
				<g>
					<path style="fill:#494C7F;" d="M2190.646,1778.572c-1.424,0-2.747-0.911-3.205-2.341
						c-3.811-11.879-16.353-11.897-16.884-11.899c-1.854,0.018-3.38-1.467-3.405-3.322c-0.024-1.853,1.447-3.378,3.302-3.41
						c6.223-0.121,19.112,3.214,23.399,16.576c0.569,1.77-0.406,3.666-2.177,4.234
						C2191.333,1778.52,2190.986,1778.572,2190.646,1778.572z"/>
				</g>
				<g>
					<path style="fill:#494C7F;" d="M2175.462,1785.866c-1.423,0-2.746-0.912-3.204-2.34c-3.811-11.879-16.354-11.898-16.884-11.9
						c-1.853,0.018-3.38-1.468-3.405-3.321c-0.024-1.854,1.446-3.38,3.301-3.413c6.224-0.121,19.113,3.216,23.401,16.577
						c0.567,1.772-0.407,3.668-2.179,4.235C2176.151,1785.813,2175.805,1785.866,2175.462,1785.866z"/>
				</g>
			</g>
			<g>
				<polygon id="v-2_2_" style="fill:#F37A50;" points="2420.924,925.619 2420.888,925.619 2391.531,925.727 2384.882,995.067 
					2419.152,1013.162 2455.698,995.271 2449.792,925.727 				"/>
				<g>
					<g>
						<path style="fill:#2C2858;" d="M2434.218,915.087c24.619,10.676,47.724-17.93,47.724-17.93
							c16.41,2.097,18.435-14.264,18.435-14.264c8.099-0.053,20.367-5.059,21.423-20.167c0.893-12.792-11.029-15.746-8.341-30.236
							c2.156-11.627,18.504-36.813-16.809-49.709c0,0,5.381-21.2-14.717-32.665c-24.641-14.057-35.947-0.106-48.407-0.722
							c-13.917-0.689-38.223-20.951-50.834,7.969c0,0-18.636-5.105-31.173,5.818c-11.681,10.177-11.833,27.604-8.269,35.095
							c0,0-16.351,0.615-23.967,13.653c-5.106,8.742-5.078,22.021,2.542,30.741c4.847,5.549,10.414,7.595,10.414,7.595
							c5.767,2.802,1.292,19.145,5.692,23.88c7.064,7.599,15.313,13.936,23.938,19.58L2434.218,915.087z"/>
						<path style="fill:#F37A50;" d="M2487.429,881.034c-8.23,47.929-51.615,84.3-89.26,77.836
							c-37.646-6.464-55.293-53.316-47.063-101.246c8.231-47.93,45.42-81.545,83.064-75.08
							C2471.814,789.009,2495.659,833.104,2487.429,881.034z"/>
						<path d="M2369.283,868.892c-1.419,3.383-5.312,4.975-8.694,3.556c-3.382-1.418-4.975-5.313-3.556-8.694
							c1.419-3.383,5.312-4.976,8.694-3.556C2369.109,861.616,2370.702,865.509,2369.283,868.892z"/>
						<path d="M2422.181,878.349c-1.536,3.662-5.75,5.386-9.411,3.85c-3.662-1.536-5.386-5.75-3.85-9.412
							c1.536-3.661,5.75-5.385,9.412-3.85C2421.995,870.473,2423.718,874.687,2422.181,878.349z"/>
						<path style="fill:#DE623C;" d="M2381.363,877.148c-7.303,8.802-16.497,19.502-16.497,19.502s2.15,10.609,15.504,12.556
							c-5.346-3.102-10.429-7.667-7.104-14.9C2376.591,887.072,2381.363,877.148,2381.363,877.148z"/>
						<g>
							<path style="fill:#2C2858;" d="M2434.079,871.382c0.249-0.054,0.495-0.136,0.735-0.25c1.653-0.789,2.353-2.767,1.566-4.419
								c-2.151-4.511-8.833-12.497-18.728-10.431c-1.801,0.403-2.941,2.13-2.567,3.922c0.374,1.791,2.13,2.94,3.922,2.566
								c7.327-1.53,11.349,6.712,11.389,6.796C2431.069,870.979,2432.613,871.696,2434.079,871.382z"/>
						</g>
						<g>
							<path style="fill:#2C2858;" d="M2373.148,853.697c0.466-0.1,0.91-0.319,1.284-0.662c1.127-1.03,1.205-2.776,0.174-3.902
								c-0.16-0.177-4.017-4.322-9.594-4.168c-3.809,0.106-7.339,2.114-10.493,5.973c-0.966,1.181-0.793,2.921,0.39,3.887
								c1.181,0.965,2.922,0.79,3.887-0.391c2.094-2.56,4.236-3.888,6.371-3.946c3.029-0.084,5.342,2.349,5.364,2.374
								C2371.218,853.611,2372.222,853.896,2373.148,853.697z"/>
						</g>
						<path style="fill:#2C2858;" d="M2347.773,799.646l88.143-42.065l75.645,71.371l-29.76,60.917
							c6.414-30.291-14.538-26.048-21.38-37.456c-6.938-11.564-7.06-26.489-32.974-20.917c0,0-14.495-17.81-28.966-2.924
							c-11.187,11.51-20.207,6.034-30.16,3.897c-11.743-2.523-12.274,9.447-19.192,7.03L2347.773,799.646z"/>
						<g>
							<path style="fill:#F37A50;" d="M2477.294,875.796c-8.58,7.56-10.52,19.381-4.331,26.403
								c6.188,7.021,18.16,6.584,26.739-0.979c8.58-7.561,10.519-19.381,4.331-26.403
								C2497.846,867.797,2485.873,868.234,2477.294,875.796z"/>
							<g>
								<path style="fill:#DE623C;" d="M2483.887,899.38c-0.346-0.146-0.664-0.374-0.925-0.679
									c-3.741-4.391-4.384-9.543-1.716-13.78c2.729-4.339,8.153-6.58,12.896-5.329c1.336,0.354,2.132,1.722,1.78,3.056
									c-0.352,1.336-1.721,2.132-3.056,1.78c-2.599-0.686-5.845,0.7-7.39,3.156c-1.483,2.359-1.025,5.156,1.291,7.872
									c0.896,1.052,0.769,2.631-0.282,3.526C2485.741,899.616,2484.731,899.738,2483.887,899.38z"/>
							</g>
						</g>
						<path style="fill:#FFFFFF;" d="M2395.483,929.292c-0.973,5.357-6.507,8.839-12.362,7.777
							c-5.854-1.064-9.812-6.268-8.839-11.627c0.973-5.358,6.508-8.84,12.361-7.777
							C2392.498,918.727,2396.456,923.933,2395.483,929.292z"/>
					</g>
				</g>
			</g>
			<g id="v_62_">
				<path id="v-25_3_" style="fill:#FFD0B7;" d="M2482.571,1012.381c-21.319-7.191-43.749-10.534-66.24-9.874
					c-76.175,0-87.838,19.245-87.838,18.798l56.53,155.234l31.308,15.451l34.265-10.151
					C2450.596,1181.839,2495.017,1017.011,2482.571,1012.381z"/>
				<path style="fill:#F5A3B7;" d="M2539.513,1321.053c0,0-62.021,15.879-119.592,16.262
					c-57.57-0.423-118.423-21.136-118.423-21.136s7.737-105.729,6.949-146.332c-1.121-46.621,2.989-108.443,2.989-170.059
					c0,0,40.835-6.574,63.872-9.413c3.743-0.465,7.015-0.821,9.571-1.047c0,0,13.125,27.537,70.314,0
					c3.005-0.299,6.724-0.281,10.883-0.041c24.025,1.436,62.719,10.501,62.719,10.501c0,61.449,2.481,121.669,1.652,168.298
					C2533.006,1209.677,2539.513,1321.053,2539.513,1321.053z"/>
			</g>
			<g id="c_2_">
				<path style="fill:#F37A50;" d="M2388.05,1132.983l-13.938-8.076c0,0-3.857-19.769-26.24-20.245
					c2.563,8.296,6.255,20.245,6.255,20.245s-11.016,8.553-37.146-6.084c-25.541-5.739-14.631,12.883-23.096,14.22
					c-12.492,1.973,9.105,26.52,34.608,30.276c32.999,4.859,36.916-1.896,36.916-1.896l18.674,6.525L2388.05,1132.983z"/>
				<path id="c_3_" style="fill:#E86686;" d="M2517.026,1154.104c-46.586-3.255-126.058-26.265-126.058-26.265
					c-12.717,19.506-9.2,45.415-9.2,45.415c72.347,63.428,181.229,83.932,214.636,68.664c30.499-13.936,8.969-199.6-67.609-242.13
					l-2.654,0.249C2499.888,1044.46,2517.026,1154.104,2517.026,1154.104z"/>
			</g>
			<path id="c_4748_" style="fill:#F37A50;" d="M2151.377,1372.248c0.429-0.672,0.695-1.398,0.891-2.144
				c0.112,0.074,0.216,0.154,0.331,0.229c6.745,4.308,14.717,3.876,17.805-0.964c0.507-0.796,0.835-1.664,1.025-2.572
				c4.96,1.159,9.656-0.037,11.861-3.493c0.875-1.373,1.248-2.955,1.202-4.61c4.879,1.479,9.953,0.151,12.421-3.72
				c3.088-4.841,0.922-11.745-4.836-15.421c-5.759-3.677-12.93-2.733-16.017,2.108c-0.782,1.225-1.225,2.582-1.36,3.987
				c-6.262-3.079-13.048-2.319-15.839,2.057c-0.506,0.795-0.836,1.662-1.026,2.571c-4.96-1.159-9.656,0.036-11.862,3.493
				c-0.812,1.273-1.194,2.729-1.21,4.257c-4.271-1.509-8.827-0.427-10.997,2.976c-2.607,4.09-0.779,9.921,4.084,13.024
				C2142.713,1377.134,2148.771,1376.335,2151.377,1372.248z"/>
			<path style="fill:#E86686;" d="M2466.077,989.287v0.009c-3.978,6.642-9.605,11.665-17.543,15.657
				c-12.569,6.343-29.65,9.03-40.169,8.209c-8.327-0.654-17.564-4.053-23.483-8.743c-6.284-4.987-9.017-11.347-9.573-14.044
				c3.743-0.465,7.589-1.044,10.146-1.27c0,0,12.551,27.76,69.74,0.223C2458.199,989.029,2461.918,989.047,2466.077,989.287z"/>
		</g>
		<path style="fill:#768FDB;" d="M2790.929,1629.467h-375.762c-22.26,0-40.305-18.046-40.305-40.306v-288.177
			c0-17.31,14.031-31.34,31.34-31.34h393.692c17.31,0,31.341,14.031,31.341,31.34v288.175
			C2831.235,1611.42,2813.188,1629.467,2790.929,1629.467z"/>
		<path style="fill:#4364CC;" d="M2850.25,1633.803h-330.277c-20.071,0-36.342-16.271-36.342-36.342v-299.557
			c0-15.607,12.652-28.26,28.26-28.26h338.359V1633.803z"/>
	</g>
	<g>
		<path style="fill:#E62552;" d="M1382.863,470.216h342.898c42.444,0,76.854,34.408,76.854,76.853v159.848
			c0,42.445-34.409,76.852-76.854,76.852h-2.544l27.521,92.199c1.211,4.056-3.475,7.292-6.839,4.725l-127.05-96.924h-233.987
			c-42.443,0-76.852-34.407-76.852-76.852V547.068C1306.012,504.624,1340.42,470.216,1382.863,470.216z"/>
		<path style="fill:#FFFFFF;" d="M1725.601,604.441h-329.213c-21.009,0-38.039-17.032-38.039-38.04l0,0
			c0-21.01,17.03-38.041,38.039-38.041h329.213c21.009,0,38.04,17.031,38.04,38.041l0,0
			C1763.642,587.409,1746.61,604.441,1725.601,604.441z"/>
		<path style="fill:#FFFFFF;" d="M1725.601,720.614h-329.213c-21.009,0-38.039-17.031-38.039-38.04l0,0
			c0-21.008,17.03-38.04,38.039-38.04h329.213c21.009,0,38.04,17.032,38.04,38.04l0,0
			C1763.642,703.583,1746.61,720.614,1725.601,720.614z"/>
	</g>
	<g>
		<path style="fill:#95ADF5;" d="M2897.342,492.427h-316.98c-39.236,0-71.044,31.808-71.044,71.043v147.766
			c0,39.236,31.808,71.044,71.044,71.044h2.353l-25.442,85.23c-1.119,3.748,3.212,6.741,6.323,4.367l117.446-89.598h216.301
			c39.236,0,71.044-31.808,71.044-71.044V563.47C2968.386,524.234,2936.578,492.427,2897.342,492.427z"/>
		<path style="fill:#FFFFFF;" d="M2897.491,617.315h-324.804c-14.27,0-25.838-11.567-25.838-25.838v-12.813
			c0-14.27,11.568-25.838,25.838-25.838h324.803c14.271,0,25.838,11.568,25.838,25.838v12.815
			C2923.328,605.748,2911.761,617.315,2897.491,617.315z"/>
		<path style="fill:#FFFFFF;" d="M2738.876,714.819h-149.452c-17.808,0-32.244-14.436-32.244-32.245l0,0
			c0-17.809,14.437-32.244,32.244-32.244h149.452c17.808,0,32.244,14.436,32.244,32.244l0,0
			C2771.12,700.383,2756.684,714.819,2738.876,714.819z"/>
	</g>
	<g>
		<path style="fill:#FFFFFF;" d="M1130.798,598.177c10.203-7.709,22.446-11.563,36.731-11.563c30.837,0,47.161,16.779,47.161,40.359
			c0,13.604-6.575,27.436-19.952,41.267c-17.006,17.912-29.25,26.755-36.959,26.755c-7.482,0-12.924-5.896-12.924-12.924
			c0-6.349,5.895-12.698,16.098-21.994c0.681-0.68,1.361-1.359,1.814-1.587c11.563-10.656,15.191-16.552,15.191-23.808
			c0-9.069-6.122-14.059-14.965-14.059c-4.081,0-8.843,0.908-14.511,2.722c-5.669,1.814-9.75,2.721-12.244,2.721
			c-6.349,0-13.604-5.442-13.604-14.511C1122.635,606.792,1125.355,602.258,1130.798,598.177z M1161.86,749.412
			c-13.831,0-23.127-10.43-23.127-23.128c0-10.884,9.296-21.313,23.127-21.313c12.018,0,21.313,10.43,21.313,21.313
			C1183.174,738.756,1174.331,749.412,1161.86,749.412z"/>
	</g>
	<g>
		<path style="fill:#FFFFFF;" d="M2306.856,652.197c-41.212,0-74.741-33.529-74.741-74.742c0-41.212,33.529-74.741,74.741-74.741
			c41.214,0,74.742,33.529,74.742,74.741C2381.599,618.668,2348.07,652.197,2306.856,652.197z M2306.856,523.3
			c-29.861,0-54.154,24.294-54.154,54.155c0,29.862,24.293,54.156,54.154,54.156s54.156-24.294,54.156-54.156
			C2361.013,547.594,2336.718,523.3,2306.856,523.3z"/>
	</g>
	<g>
		<path style="fill:#FFFFFF;" d="M896.63,667.488c-27.104,0-49.155-22.051-49.155-49.156c0-27.103,22.051-49.155,49.155-49.155
			s49.155,22.052,49.155,49.155C945.785,645.438,923.734,667.488,896.63,667.488z M896.63,582.717
			c-19.639,0-35.616,15.977-35.616,35.615c0,19.641,15.978,35.617,35.616,35.617c19.64,0,35.616-15.977,35.616-35.617
			C932.246,598.693,916.269,582.717,896.63,582.717z"/>
	</g>
	<g>
		<path style="fill:#FFFFFF;" d="M836.643,368.294c-21.205,0-38.456-17.252-38.456-38.456s17.251-38.455,38.456-38.455
			c21.204,0,38.455,17.251,38.455,38.455S857.848,368.294,836.643,368.294z M836.643,301.975c-15.364,0-27.863,12.5-27.863,27.863
			c0,15.364,12.499,27.864,27.863,27.864c15.364,0,27.863-12.5,27.863-27.864C864.507,314.475,852.008,301.975,836.643,301.975z"/>
	</g>
	<path style="fill:#E3EAFF;" d="M1553.878,208.919c0,29.04-23.543,52.584-52.583,52.584c-29.042,0-52.584-23.544-52.584-52.584
		c0-29.042,23.542-52.584,52.584-52.584C1530.335,156.335,1553.878,179.877,1553.878,208.919z"/>
	<path style="fill:#FFFFFF;" d="M2434.182,410.272c0,29.042-23.541,52.584-52.583,52.584c-29.041,0-52.583-23.542-52.583-52.584
		c0-29.041,23.542-52.583,52.583-52.583C2410.641,357.689,2434.182,381.231,2434.182,410.272z"/>
	<path style="fill:#FFFFFF;" d="M734.234,414.252c0,29.041-23.543,52.584-52.584,52.584c-29.04,0-52.583-23.543-52.583-52.584
		c0-29.041,23.543-52.584,52.583-52.584C710.691,361.668,734.234,385.211,734.234,414.252z"/>
	<path style="fill:#FFFFFF;" d="M729.835,726.489c-17.394,17.394-45.596,17.394-62.99,0c-17.394-17.393-17.394-45.595,0-62.989
		c17.394-17.395,45.596-17.395,62.99,0C747.229,680.894,747.229,709.096,729.835,726.489z"/>
	<path style="fill:#E3EAFF;" d="M416.787,757.582c0,23.566-19.105,42.671-42.672,42.671s-42.672-19.105-42.672-42.671
		c0-23.567,19.105-42.672,42.672-42.672S416.787,734.015,416.787,757.582z"/>
	<g>
		<g>
			<g>
				<path style="fill:#97AAE8;" d="M1114.909,1433.418c-17.989-38.769,27.242-87.642,5.667-124.536
					c-13.4-22.916-48.614-31.268-52.538-57.521c-1.169-7.823,0.924-15.708,2.028-23.54c4.311-30.56-7.514-62.937-30.504-83.526
					c-22.932-20.537-56.298-28.74-86.142-21.2l-0.005-0.016c-0.036,0.014-0.073,0.029-0.11,0.043
					c-0.037,0.01-0.076,0.018-0.114,0.027l0.005,0.016c-28.822,10.829-53.013,37.057-60.136,67.005
					c-7.141,30.024,1.612,63.363,22.583,86.007c5.374,5.803,11.591,11.086,15.092,18.178c11.751,23.804-12.411,50.749-10.349,77.214
					c3.321,42.61,68.348,56.956,75.684,99.063c1.935,11.106-0.661,22.451-0.885,33.722c-0.979,49.209,52.475,91.446,100.123,79.113
					l2.44-0.765c46.172-17.046,65.99-82.227,37.121-122.089C1128.257,1451.483,1119.654,1443.644,1114.909,1433.418z"/>
				<g>
					<path style="fill:#859CE8;" d="M956.268,1125.577l187.038,575.316c1.501,4.613-1.023,9.57-5.637,11.07
						c-4.614,1.499-9.57-1.024-11.07-5.639c-0.016-0.047-0.042-0.135-0.057-0.182l-174.494-579.245
						c-0.352-1.169,0.31-2.402,1.478-2.754C954.681,1123.797,955.896,1124.438,956.268,1125.577z"/>
					<path style="fill:#859CE8;" d="M972.2,1393.031c2.201-0.254,4.415-0.449,6.642-0.571c2.227-0.117,4.464-0.132,6.709-0.073
						c4.483,0.175,8.999,0.713,13.417,1.805c4.417,1.074,8.76,2.59,12.891,4.564c4.138,1.964,8.088,4.328,11.823,6.978
						c7.496,5.296,14.063,11.746,20.023,18.619c5.93,6.909,11.22,14.306,16.092,21.93c1.775,2.777,0.962,6.469-1.814,8.243
						c-2.778,1.774-6.469,0.963-8.244-1.814c-0.107-0.169-0.205-0.341-0.294-0.515l-0.012-0.022
						c-3.873-7.668-8.145-15.123-13.025-22.131c-4.909-6.97-10.391-13.56-16.793-19.128c-3.192-2.787-6.601-5.327-10.229-7.523
						c-3.624-2.208-7.491-4.014-11.52-5.438c-4.025-1.438-8.239-2.385-12.527-2.988c-2.148-0.273-4.314-0.479-6.491-0.585
						c-2.179-0.1-4.368-0.129-6.563-0.097c-0.347,0.006-0.633-0.271-0.639-0.617C971.638,1393.343,971.885,1393.07,972.2,1393.031z"
						/>
					<path style="fill:#859CE8;" d="M1075.173,1304.721c-1.826,1.192-3.612,2.44-5.346,3.747c-1.729,1.313-3.386,2.707-4.988,4.154
						c-3.167,2.933-6.058,6.135-8.51,9.643c-4.976,6.974-8.244,14.99-10.254,23.266c-2.034,8.29-2.787,16.872-2.895,25.443
						c-0.059,8.584,0.583,17.186,1.649,25.739l0.002,0.015c0.301,2.408-1.408,4.605-3.817,4.905
						c-2.407,0.301-4.604-1.409-4.904-3.816c-0.013-0.103-0.022-0.213-0.027-0.314c-0.471-8.922-0.5-17.894,0.203-26.845
						c0.753-8.938,2.184-17.887,4.959-26.492c2.744-8.586,6.836-16.853,12.592-23.805c2.839-3.498,6.097-6.621,9.577-9.41
						c1.759-1.373,3.562-2.681,5.42-3.893c1.863-1.207,3.764-2.342,5.693-3.413c0.304-0.169,0.686-0.06,0.854,0.244
						C1075.542,1304.178,1075.445,1304.541,1075.173,1304.721z"/>
				</g>
			</g>
			<g>
				<path style="fill:#97AAE8;" d="M1207.235,1433.203c14.901-30.604-20.39-70.194-2.66-99.254
					c11.011-18.048,39.177-24.174,42.691-45.022c1.048-6.212-0.502-12.522-1.265-18.776c-2.978-24.398,6.919-50.005,25.533-66.058
					c18.566-16.014,45.259-22.049,68.911-15.601l0.004-0.013c0.028,0.012,0.058,0.024,0.087,0.036
					c0.03,0.008,0.061,0.015,0.091,0.023l-0.004,0.013c22.79,9.052,41.663,30.297,46.89,54.251
					c5.239,24.016-2.227,50.433-19.263,68.152c-4.365,4.541-9.394,8.655-12.288,14.25c-9.711,18.78,9.128,40.597,7.092,61.64
					c-3.279,33.883-55.273,44.339-61.741,77.76c-1.706,8.814,0.192,17.888,0.203,26.866c0.048,39.199-43.146,72.038-80.906,61.509
					l-1.932-0.645c-36.514-14.262-51.325-66.461-27.743-97.772C1196.338,1447.391,1203.304,1441.276,1207.235,1433.203z"/>
				<g>
					<path style="fill:#859CE8;" d="M1338.142,1190.427l-157.5,455.348c-1.262,3.652,0.674,7.636,4.325,8.899
						c3.651,1.263,7.636-0.673,8.899-4.325c0.012-0.037,0.035-0.107,0.048-0.144l147.568-458.664
						c0.298-0.926-0.211-1.917-1.137-2.215C1339.432,1189.032,1338.454,1189.525,1338.142,1190.427z"/>
					<path style="fill:#859CE8;" d="M1321.476,1403.166c-1.748-0.234-3.509-0.424-5.279-0.555c-1.772-0.125-3.554-0.171-5.342-0.158
						c-3.573,0.073-7.177,0.435-10.711,1.238c-3.533,0.789-7.014,1.931-10.333,3.443c-3.324,1.503-6.504,3.326-9.519,5.381
						c-6.048,4.105-11.373,9.145-16.221,14.528c-4.825,5.413-9.147,11.225-13.141,17.224c-1.455,2.186-0.863,5.137,1.322,6.591
						s5.137,0.862,6.591-1.322c0.089-0.133,0.17-0.269,0.243-0.406l0.009-0.018c3.199-6.048,6.711-11.921,10.702-17.429
						c4.013-5.478,8.476-10.644,13.656-14.981c2.583-2.174,5.336-4.144,8.258-5.84c2.918-1.705,6.026-3.085,9.255-4.157
						c3.228-1.087,6.597-1.776,10.02-2.194c1.715-0.186,3.441-0.316,5.178-0.369c1.737-0.047,3.481-0.037,5.228,0.02
						c0.276,0.011,0.508-0.205,0.518-0.481C1321.919,1403.423,1321.726,1403.201,1321.476,1403.166z"/>
					<path style="fill:#859CE8;" d="M1369.412,1259.546c-1.751-0.215-3.512-0.382-5.282-0.492c-1.77-0.104-3.549-0.129-5.332-0.096
						c-3.562,0.113-7.146,0.516-10.652,1.354c-3.506,0.825-6.95,1.998-10.229,3.535c-3.284,1.528-6.42,3.374-9.388,5.445
						c-5.956,4.141-11.186,9.201-15.94,14.602c-4.731,5.431-8.961,11.254-12.863,17.262c-1.128,1.738-0.634,4.062,1.103,5.189
						c1.737,1.129,4.061,0.635,5.188-1.104c0.052-0.078,0.1-0.158,0.145-0.24l0.011-0.02c3.29-6.038,6.895-11.9,10.979-17.392
						c4.106-5.461,8.664-10.604,13.938-14.908c2.63-2.155,5.426-4.105,8.389-5.774c2.959-1.678,6.103-3.027,9.358-4.065
						c3.256-1.051,6.645-1.7,10.078-2.077c1.72-0.165,3.449-0.275,5.188-0.307c1.737-0.026,3.481,0.005,5.226,0.083
						c0.275,0.013,0.511-0.199,0.523-0.476C1369.863,1259.805,1369.668,1259.579,1369.412,1259.546z"/>
					<path style="fill:#859CE8;" d="M1240.792,1331.312c1.437,0.977,2.84,1.997,4.2,3.063c1.358,1.071,2.657,2.207,3.911,3.383
						c2.478,2.382,4.732,4.976,6.633,7.805c3.858,5.627,6.342,12.059,7.819,18.679c1.496,6.632,1.968,13.478,1.926,20.304
						c-0.08,6.837-0.719,13.677-1.696,20.472l-0.002,0.012c-0.274,1.915,1.054,3.688,2.967,3.963
						c1.914,0.275,3.688-1.052,3.963-2.967c0.012-0.08,0.021-0.168,0.027-0.248c0.506-7.098,0.663-14.242,0.236-21.38
						c-0.466-7.13-1.473-14.276-3.555-21.17c-2.058-6.878-5.192-13.52-9.673-19.144c-2.208-2.827-4.756-5.362-7.486-7.634
						c-1.38-1.12-2.796-2.189-4.258-3.182c-1.465-0.988-2.962-1.92-4.483-2.803c-0.239-0.139-0.544-0.057-0.683,0.182
						C1240.506,1330.874,1240.577,1331.166,1240.792,1331.312z"/>
				</g>
			</g>
			<g>
				<path style="fill:#AEBCE8;" d="M1225.896,1367.919c-5.582-42.374,52.187-75.497,42.622-117.153
					c-5.94-25.872-37.05-44.365-32.948-70.592c1.222-7.814,5.576-14.714,8.97-21.857c13.246-27.876,11.637-62.307-4.149-88.825
					c-15.747-26.451-45.138-44.251-75.871-45.974v-0.017c-0.039,0.003-0.078,0.007-0.117,0.009c-0.04-0.002-0.079-0.006-0.118-0.009
					v0.017c-30.741,1.722-61.664,19.522-77.41,45.974c-15.787,26.518-17.396,60.949-4.15,88.825
					c3.395,7.144,7.747,14.043,8.97,21.857c4.101,26.227-27.009,44.72-32.949,70.592c-9.563,41.656,48.205,74.779,42.623,117.153
					c-1.473,11.178-7.339,21.228-10.922,31.916c-15.639,46.668,22.752,102.948,71.908,105.418h2.558
					c49.156-2.47,87.546-58.75,71.906-105.418C1233.235,1389.146,1227.367,1379.097,1225.896,1367.919z"/>
				<g>
					<path style="fill:#97AAE8;" d="M1166.494,1026.737l6.573,604.921c0.052,4.851-3.837,8.826-8.688,8.879
						c-4.852,0.054-8.827-3.837-8.88-8.688c0-0.049,0-0.143,0-0.191l6.573-604.921c0.014-1.221,1.014-2.2,2.235-2.187
						C1165.511,1024.563,1166.479,1025.539,1166.494,1026.737z"/>
					<path style="fill:#97AAE8;" d="M1101.775,1286.731c2.177,0.415,4.349,0.891,6.509,1.439c2.16,0.555,4.3,1.209,6.425,1.934
						c4.227,1.507,8.375,3.37,12.264,5.733c3.895,2.345,7.587,5.088,10.938,8.208c3.361,3.111,6.425,6.547,9.197,10.191
						c5.571,7.295,9.91,15.412,13.545,23.752c3.594,8.365,6.431,17.005,8.803,25.736c0.864,3.181-1.015,6.461-4.195,7.323
						c-3.182,0.864-6.46-1.013-7.324-4.193c-0.052-0.194-0.095-0.387-0.127-0.58l-0.004-0.025
						c-1.406-8.474-3.254-16.864-5.817-25.011c-2.603-8.118-5.864-16.047-10.31-23.272c-2.213-3.614-4.708-7.057-7.515-10.237
						c-2.798-3.189-5.949-6.068-9.368-8.631c-3.412-2.576-7.151-4.737-11.062-6.596c-1.968-0.901-3.974-1.744-6.021-2.498
						c-2.05-0.746-4.13-1.428-6.232-2.054c-0.334-0.098-0.524-0.446-0.427-0.779
						C1101.146,1286.861,1101.463,1286.675,1101.775,1286.731z"/>
					<path style="fill:#97AAE8;" d="M1101.775,1096.627c2.171,0.44,4.335,0.941,6.485,1.514c2.15,0.58,4.279,1.258,6.39,2.006
						c4.197,1.551,8.307,3.454,12.148,5.847c3.847,2.377,7.483,5.142,10.776,8.277c3.304,3.127,6.306,6.569,9.017,10.217
						c5.447,7.3,9.664,15.405,13.18,23.728c3.477,8.349,6.198,16.965,8.458,25.672c0.652,2.518-0.857,5.088-3.376,5.741
						c-2.517,0.653-5.088-0.858-5.741-3.376c-0.029-0.114-0.054-0.229-0.075-0.344l-0.006-0.028
						c-1.518-8.498-3.48-16.913-6.162-25.077c-2.72-8.136-6.104-16.075-10.673-23.296c-2.275-3.611-4.831-7.046-7.696-10.212
						c-2.856-3.175-6.064-6.031-9.53-8.562c-3.459-2.546-7.237-4.667-11.177-6.48c-1.982-0.88-3.999-1.699-6.056-2.428
						c-2.059-0.721-4.146-1.378-6.256-1.979c-0.335-0.093-0.529-0.44-0.436-0.773
						C1101.135,1096.756,1101.457,1096.564,1101.775,1096.627z"/>
					<path style="fill:#97AAE8;" d="M1226.434,1233.226c-2.101,0.593-4.177,1.25-6.222,1.98c-2.043,0.736-4.041,1.571-6.002,2.474
						c-3.898,1.853-7.614,4.045-11.003,6.659c-6.831,5.168-12.347,11.842-16.738,19.138c-4.418,7.303-7.701,15.269-10.364,23.416
						c-2.622,8.174-4.579,16.574-6.117,25.057l-0.003,0.015c-0.433,2.389-2.721,3.974-5.108,3.54
						c-2.389-0.433-3.974-2.72-3.54-5.108c0.018-0.101,0.042-0.21,0.066-0.308c2.218-8.654,4.871-17.226,8.217-25.557
						c3.39-8.306,7.429-16.418,12.649-23.802c5.185-7.372,11.559-14.038,19.129-18.953c3.755-2.49,7.797-4.497,11.952-6.118
						c2.089-0.785,4.199-1.493,6.336-2.096c2.138-0.594,4.291-1.109,6.453-1.556c0.339-0.069,0.672,0.148,0.741,0.488
						C1226.947,1232.819,1226.746,1233.138,1226.434,1233.226z"/>
				</g>
			</g>
			<path id="Vector_23_1_" style="fill:#494C7F;" d="M1221.494,1605.866h-143.811c-11.266,0-19.999,10.141-18.654,21.66
				l19.382,166.112c1.134,9.726,9.145,17.043,18.654,17.043h105.048c9.509,0,17.519-7.317,18.654-17.043l19.382-166.112
				C1241.492,1616.007,1232.76,1605.866,1221.494,1605.866z"/>
		</g>
		<g>
			<g>
				<path style="fill:#4364CC;" d="M1037.886,1676.109l43.187,137.699c1.152,3.674,3.074,5.875,5.129,5.875l0,0
					c3.808,0,6.713-7.348,6.117-15.468l-9.402-128.106H1037.886z"/>
				<path style="fill:#4364CC;" d="M639.579,1676.109l-43.187,137.699c-1.152,3.674-3.074,5.875-5.129,5.875l0,0
					c-3.807,0-6.713-7.348-6.116-15.468l9.402-128.106H639.579z"/>
				<path style="fill:#4364CC;" d="M434.154,1676.109l-43.188,137.699c-1.152,3.674-3.073,5.875-5.128,5.875l0,0
					c-3.808,0-6.713-7.348-6.117-15.468l9.402-128.106H434.154z"/>
				<path style="fill:#768FDB;" d="M681.65,1681.172h351.968c46.463,0,84.128-37.664,84.128-84.127v-182.384
					c0-36.127-29.287-65.413-65.414-65.413H681.65V1681.172z"/>
				<path style="fill:#4364CC;" d="M585.069,1681.172h351.966c46.464,0,84.129-37.665,84.129-84.128v-182.381
					c0-36.128-29.287-65.415-65.415-65.415h-370.68V1681.172z"/>
				<path style="fill:#768FDB;" d="M500.697,1433.193h321.555v-209.969c0-33.554-27.201-60.755-60.755-60.755h-260.8V1433.193z"/>
				<path style="fill:#95ADF5;" d="M466.083,1427.511h479.232c42.361,0,76.702,34.341,76.702,76.703v18.275H466.083V1427.511z"/>
				<rect x="466.083" y="1511.453" style="fill:#768FDB;" width="555.935" height="169.964"/>
				<path style="fill:#4364CC;" d="M388.851,1433.193h111.847V1162.47h-49.062c-34.676,0-62.785,28.11-62.785,62.786V1433.193z"/>
			</g>
			<g>
				<path style="fill:#201D40;" d="M764.221,872.949c0.503-55.743-77.384-71.518-103.017-54.757
					c-63.225,41.339-45.351,64.833-45.351,98.589c0,33.756-29.161,36.19-57.183,33.521c-41.407-3.943-66.912,48.313-46.337,84.787
					c21.689,38.45,35.176,68.583,1.42,96.011c-33.756,27.427,40.086,105.488,103.378,59.072
					c63.294-46.414,97.705-89.758,76.607-108.746c-21.098-18.987-2.353-91.889,20.704-97.604
					C737.5,978.107,764.221,872.949,764.221,872.949z"/>
				<path style="fill:#2C2858;" d="M799.627,1057.258c54.854-14.241,79.534-134.911,15.423-177.485
					c-67.111-44.568-159.419-3.363-169.436,66.723c-10.017,70.085,48.793,109.957,48.793,109.957L799.627,1057.258z"/>
				<path style="fill:#F37A50;" d="M1119.057,1634.594l21.225,29.688c0,0,18.957,24.161,41.556,12.817
					c22.599-11.345,12.581-47.641,12.581-47.641l-25.964-34.184L1119.057,1634.594z"/>
				<g>
					<g>
						<g>
							<path style="fill:#2C2858;" d="M1193.532,1625.526c0,0,22.82-0.215,47.61-8.661c13.868-4.726,50.123-18.474,58.263,6.333
								c1.215,3.702,0.647,8.887-6.156,16.771c-10.05,11.645-25.391,24.462-61.366,35.606
								c-43.159,13.369-46.64,21.013-63.125,25.088c-17.086,4.224-22.739-19.608-29.346-38.973l0,0
								c3.013,4.086,11.995,14.149,44.097,8.28C1193.093,1668.219,1165.741,1638.099,1193.532,1625.526z"/>
						</g>
					</g>
				</g>
				<path style="fill:#F37A50;" d="M939.299,1736.66v20.134c0,0,1.369,30.682,26.35,34.597
					c24.982,3.915,37.943-31.438,37.943-31.438l-0.917-31.715L939.299,1736.66z"/>
				<g>
					<path style="fill:#C4204A;" d="M843.589,1235.135c-12.185-0.106-37.151,44.574-35.032,48.272
						c29.541,32.764,144.93,36.131,144.93,36.131l13.862-14.219C967.349,1305.318,898.776,1273.861,843.589,1235.135z"/>
					<path style="fill:#C4204A;" d="M719.372,1122.833c11.22,33.748,77.009,156.431,89.185,160.573l35.032-48.272
						c0,0-39.904-100.972-69.992-138.921C752.211,1069.241,700.95,1067.771,719.372,1122.833z"/>
				</g>
				<path style="fill:#F37A50;" d="M731.813,1037.615c0,0,2.31,39.789,4.335,55.812l-47.14,19.27
					c-15.073-58.739-2.712-122.225-2.712-122.225L731.813,1037.615z"/>
				<path style="fill:#3F964F;" d="M758.784,1446.866l242.436-10.358c0,0,11.959-60.507,2.963-84.497
					c-8.997-23.989-231.741-19.044-231.741-19.044L758.784,1446.866z"/>
				<path style="fill:#0E6A41;" d="M687.482,1291.504c-6.568,15.182-32.172,60.367-29.699,96.997
					c2.551,37.806,29.227,70.72,74.37,70.003c0,0,85.089-48.369,66.672-147.445C798.825,1311.059,754.279,1293.66,687.482,1291.504z
					"/>
				<path style="fill:#0E6A41;" d="M725.427,1467.134l213.552,20.144c0,0,73.255-30.912,72.837-57.165
					c-0.417-26.254-215.589-98.091-215.589-98.091C670.029,1295.219,627.96,1451.85,725.427,1467.134z"/>
				<path style="fill:#0E6A41;" d="M1011.815,1430.112l-4.28,301.222c0,0-53.31,22.469-71.991,0.173
					c-8.817-102.234-50.799-192.803-3.931-255.126C994.386,1392.906,1011.815,1430.112,1011.815,1430.112z"/>
				<path style="fill:#3F964F;" d="M1003.668,1351.306l177.711,244.05c0,0-39.664,53.011-67.359,46.806
					c-47.782-60.464-144.473-131.361-145.09-207.451C968.104,1332.8,1003.668,1351.306,1003.668,1351.306z"/>
				<path style="fill:#E62552;" d="M684.825,1077.005l50.238,0.708c35.764,23.301,62.266,56.228,67.191,78.029
					c6.485,28.703,7.903,185.484,7.903,185.484c-50.322,18.422-106.559,2.012-143.22-11.607
					c9.197-76.305-60.732-169.999-25.076-228.064C650.76,1087.065,666.247,1084.216,684.825,1077.005z"/>
				<g>
					<g>
						<g>
							<path style="fill:#2C2858;" d="M1005.157,1756.239c0,0,18.688,13.099,43.768,20.645
								c14.029,4.222,51.518,14.123,43.712,39.038c-1.165,3.717-4.642,7.604-14.762,10.061c-14.948,3.629-34.882,5.133-70.629-6.724
								c-42.885-14.226-50.16-10.032-65.941-16.306c-16.355-6.501-7.094-29.177-1.206-48.771l0,0
								c0.074,5.076,1.528,18.488,31.056,32.384C979.97,1790.714,975.238,1750.303,1005.157,1756.239z"/>
						</g>
					</g>
				</g>
				<g>
					<path style="fill:#2C2858;" d="M803.206,1353.922h193.735l38.242-121.591c1.766-5.616-2.428-11.331-8.314-11.331H851.406
						c-3.806,0-7.172,2.47-8.314,6.101L803.206,1353.922z"/>
					<path style="fill:#494C7F;" d="M817.901,1353.922h185.418c4.95,0,9.328-3.212,10.813-7.936l35.747-113.655
						c1.766-5.616-2.428-11.331-8.314-11.331H866.102c-3.807,0-7.173,2.47-8.315,6.101L817.901,1353.922z"/>
					<path style="fill:#555994;" d="M931.959,1289.855c-2.135,7.512,1.664,15.172,8.485,17.109
						c6.82,1.938,14.079-2.58,16.213-10.091c2.134-7.511-1.665-15.171-8.486-17.108
						C941.352,1277.827,934.093,1282.345,931.959,1289.855z"/>
					<path style="fill:#2C2858;" d="M715.624,1335.915h102.277v17.702H699.733v-1.812
						C699.733,1343.029,706.848,1335.915,715.624,1335.915z"/>
				</g>
				<path style="fill:#F37A50;" d="M795.337,1344.802c-13.87-0.118-32.09,2.52-31.66-4.664c0.43-7.187,7.574-9.826,8.438-18.459
					c0.767-7.654-20.533-3.233-41.159,14.279l-9.146-2.141l-9.461,28.216l8.701,3.221c14.706,17.682,59.037,26.728,85.1,12.929
					C832.541,1364.21,809.206,1344.92,795.337,1344.802z"/>
				<path style="fill:#C4204A;" d="M620.188,1123.771c-17.088,37.571-70.737,117.452-57.008,164.664
					c9.612,33.054,151.997,81.426,151.997,81.426l13.528-34.479l-98.941-73.624c0,0,65.161-102.059,71.162-123.356
					C711.419,1101.161,647.06,1064.691,620.188,1123.771z"/>
				<g>
					<path style="fill:#F37A50;" d="M690.281,967.883c-7.845,51.82,18.79,98.822,59.488,104.984
						c40.7,6.161,80.054-30.853,87.898-82.673c7.846-51.819-18.789-98.822-59.488-104.984
						C737.479,879.048,698.126,916.063,690.281,967.883z"/>
					<path d="M815.251,995.552c0.304,3.942,3.745,6.892,7.687,6.588c3.942-0.304,6.893-3.745,6.588-7.686
						c-0.304-3.942-3.745-6.892-7.688-6.588C817.897,988.168,814.947,991.609,815.251,995.552z"/>
					<path d="M757.933,987.276c0.329,4.268,4.054,7.46,8.321,7.131c4.268-0.328,7.46-4.054,7.131-8.321
						c-0.328-4.267-4.054-7.46-8.32-7.132C760.797,979.283,757.604,983.008,757.933,987.276z"/>
					<g>
						<path style="fill:#2C2858;" d="M752.404,978.109c0.589-0.046,1.167-0.283,1.632-0.718c6.747-6.306,17.085-3.875,17.189-3.85
							c1.442,0.352,2.902-0.528,3.259-1.971c0.356-1.442-1.013-3.632-2.369-4.236c-4.753-2.118-13.487-3.303-22.404,5.03
							c-1.087,1.016-0.499,3.81,0.518,4.898C750.81,977.885,751.616,978.17,752.404,978.109z"/>
					</g>
					<g>
						<path style="fill:#2C2858;" d="M833.847,990.775c0.288-0.022,0.578-0.092,0.858-0.212c1.367-0.588,2.353-3.229,1.765-4.597
							c-4.565-10.615-11.637-11.219-15.546-10.858c-1.479,0.136-3.234,1.65-3.314,3.137c-0.079,1.481,1.055,2.747,2.534,2.833
							c0.35,0.023,7.81,0.608,11.021,8.074C831.632,990.239,832.729,990.862,833.847,990.775z"/>
					</g>
					<path style="fill:#DE623C;" d="M800.636,1004.536c2.668,4.964,4.84,9.912,7.798,13.213c0.997,1.113,0.925,2.842-0.138,3.892
						c-4.387,4.335-14.105,6.162-19.952,6.892c-0.854,0.106-1.194-1.069-0.416-1.438c6.58-3.115,9.812-5.869,11.293-7.465
						c0.736-0.793,1.035-1.888,0.83-2.951c-0.471-2.44-1.38-7.401-1.808-11.416C798.096,1003.877,799.976,1003.309,800.636,1004.536
						z"/>
					<path style="fill:#2C2858;" d="M677.597,961.807c46.685,12.027,129.534,5.703,150.309-37.475
						c2.713-31.284-32.642-49.725-63.685-51.383C719.553,870.563,673.033,919.203,677.597,961.807z"/>
					<g>
						<path style="fill:#F37A50;" d="M706.294,965.218c7.179,12.413,4.764,27.237-5.394,33.112s-24.213,0.575-31.392-11.838
							s-4.764-27.238,5.394-33.112C685.06,947.504,699.115,952.805,706.294,965.218z"/>
						<g>
							<path style="fill:#DE623C;" d="M689.04,990.619c0.471-0.037,0.94-0.18,1.371-0.438c6.2-3.725,9.02-9.591,7.543-15.693
								c-1.512-6.248-7.065-11.078-13.203-11.484c-1.729-0.113-3.222,1.193-3.336,2.922c-0.114,1.727,1.194,3.221,2.922,3.335
								c3.363,0.223,6.667,3.167,7.523,6.702c0.821,3.396-0.84,6.537-4.678,8.844c-1.484,0.891-1.965,2.817-1.073,4.302
								C686.742,990.159,687.894,990.708,689.04,990.619z"/>
						</g>
					</g>
					<path style="fill:#FFFFFF;" d="M756.825,1034.738c0.299-1.654,1.174-3.017,2.676-2.264c3.819,1.916,10.182,4.944,16.48,7.216
						c6.298,2.271,13.13,4.001,17.292,4.964c1.638,0.379,1.482,2.011,0.615,3.451c-3.589,5.961-13.402,10.57-23.056,7.089
						C761.18,1051.713,755.711,1040.893,756.825,1034.738z"/>
				</g>
			</g>
			<path style="fill:#768FDB;" d="M485.432,1681.172h195.694c46.463,0,84.128-37.664,84.128-84.127v-182.382
				c0-36.128-29.287-65.415-65.415-65.415H485.432V1681.172z"/>
			<path style="fill:#4364CC;" d="M388.851,1681.172h195.694c46.462,0,84.128-37.664,84.128-84.128v-182.381
				c0-36.128-29.288-65.415-65.415-65.415H388.851V1681.172z"/>
		</g>
		<g>
			<path style="fill:#CFDBFF;" d="M1057.021,940.45H927.688c-8.033,0-14.545,6.513-14.545,14.545v72.577
				c0,8.032,6.512,14.544,14.545,14.544h4.215l14.987,28.235c1.948,3.668,7.148,3.819,9.305,0.271l17.325-28.506h83.501
				c8.031,0,14.544-6.512,14.544-14.544v-72.577C1071.565,946.963,1065.053,940.45,1057.021,940.45z"/>
			<path style="fill:#CFDBFF;" d="M989.626,924.209L989.626,924.209c-4.697,0-8.505-3.808-8.505-8.505V889.84
				c0-4.697,3.808-8.506,8.505-8.506l0,0c4.697,0,8.506,3.809,8.506,8.506v25.864C998.132,920.401,994.323,924.209,989.626,924.209z
				"/>
			<path style="fill:#CFDBFF;" d="M1020.448,921.718L1020.448,921.718c-3.321-3.321-3.321-8.706,0-12.028l18.289-18.288
				c3.321-3.322,8.707-3.322,12.028,0l0,0c3.321,3.321,3.321,8.707,0,12.028l-18.289,18.288
				C1029.155,925.04,1023.771,925.04,1020.448,921.718z"/>
			<path style="fill:#CFDBFF;" d="M958.805,921.718L958.805,921.718c3.321-3.321,3.321-8.706,0-12.028l-18.289-18.288
				c-3.322-3.322-8.708-3.322-12.029,0l0,0c-3.32,3.321-3.32,8.707,0,12.028l18.289,18.288
				C950.098,925.04,955.482,925.04,958.805,921.718z"/>
			<path style="fill:#FFFFFF;" d="M1049.174,934.309H919.842c-8.032,0-14.545,6.512-14.545,14.545v72.577
				c0,8.032,6.513,14.544,14.545,14.544h4.215l14.988,28.235c1.947,3.668,7.147,3.818,9.304,0.27l17.325-28.505h83.5
				c8.033,0,14.545-6.512,14.545-14.544v-72.577C1063.719,940.82,1057.207,934.309,1049.174,934.309z"/>
			<g>
				<path style="fill:#C4204A;" d="M1038.115,957.015l0.037,56.695c0.002,2.162-1.745,3.911-3.903,3.912l-98.534,0.065
					c-2.158,0.001-3.908-1.745-3.909-3.907l-0.038-56.696c-0.001-2.161,1.746-3.91,3.903-3.911l98.535-0.065
					C1036.364,953.105,1038.113,954.852,1038.115,957.015z"/>
				<path style="fill:#E62552;" d="M1038.115,957.015l0.002,3.134l-44.873,32.273c-4.357,3.266-10.33,3.32-14.746,0.137
					l-46.729-33.684l-0.001-1.791c-0.001-2.159,1.748-3.91,3.907-3.911l98.528-0.065
					C1036.362,953.105,1038.113,954.854,1038.115,957.015z"/>
			</g>
			<path style="fill:#FFFFFF;" d="M983.849,918.828L983.849,918.828c-4.697,0-8.505-3.808-8.505-8.505v-25.865
				c0-4.697,3.808-8.505,8.505-8.505l0,0c4.698,0,8.506,3.808,8.506,8.505v25.865C992.354,915.021,988.547,918.828,983.849,918.828z
				"/>
			<path style="fill:#FFFFFF;" d="M1014.672,916.337L1014.672,916.337c-3.322-3.321-3.322-8.707,0-12.028l18.288-18.289
				c3.321-3.321,8.707-3.321,12.029,0l0,0c3.32,3.322,3.32,8.707,0,12.029l-18.29,18.288
				C1023.378,919.658,1017.992,919.658,1014.672,916.337z"/>
			<path style="fill:#FFFFFF;" d="M953.026,916.337L953.026,916.337c3.322-3.321,3.322-8.707,0-12.028l-18.288-18.289
				c-3.321-3.321-8.707-3.321-12.028,0l0,0c-3.322,3.322-3.322,8.707,0,12.029l18.289,18.288
				C944.32,919.658,949.706,919.658,953.026,916.337z"/>
		</g>
		<g>
			<g>
				<g>
					<path style="fill:#E62552;" d="M575.804,1514.581h-19.313c-3.079,0-5.575-2.497-5.575-5.577c0-3.078,2.496-5.575,5.575-5.575
						h13.736v-36.271h-13.736c-3.079,0-5.575-2.496-5.575-5.575c0-3.08,2.496-5.576,5.575-5.576h19.313
						c3.079,0,5.575,2.496,5.575,5.576v47.422C581.379,1512.084,578.883,1514.581,575.804,1514.581z"/>
				</g>
				<path style="fill:#E62552;" d="M547.016,1536.537h-53.539c-5.233,0-9.475-4.242-9.475-9.475v-83.538
					c0-5.233,4.242-9.476,9.475-9.476h53.54c5.233,0,9.476,4.242,9.476,9.476v83.538
					C556.491,1532.295,552.249,1536.537,547.016,1536.537z"/>
			</g>
			<path style="fill:#FFFFFF;" d="M513.165,1424.291c0,0-23.427-9.503-16.178-26.706c7.249-17.202,33.611-14.937,18.617-39.855
				c18.081,9.967,20.8,32.167,6.755,37.604C508.314,1400.771,507.597,1414.533,513.165,1424.291z"/>
			<path style="fill:#FFFFFF;" d="M535.18,1424.291c0,0-16.659-6.758-11.504-18.991c5.154-12.231,23.9-10.621,13.239-28.342
				c12.857,7.089,14.79,22.876,4.803,26.742C531.729,1407.566,531.22,1417.351,535.18,1424.291z"/>
		</g>
		<g>
			<path style="fill:#95ADF5;" d="M585.026,1569.483H209.309c-9.327,0-16.888-7.561-16.888-16.889l0,0
				c0-9.327,7.561-16.889,16.888-16.889h375.718c9.327,0,16.889,7.562,16.889,16.889l0,0
				C601.915,1561.923,594.354,1569.483,585.026,1569.483z"/>
			<rect x="232.117" y="1563.507" style="fill:#95ADF5;" width="21.765" height="250.297"/>
			<rect x="540.454" y="1563.507" style="fill:#95ADF5;" width="21.765" height="250.297"/>
		</g>
		<g>
			<g>
				<path style="fill:#E62552;" d="M446.095,1510.066v17.518h4.77c2.315,0,4.19,1.877,4.19,4.191v0.704
					c0,2.314-1.876,4.19-4.19,4.19H247.602c-2.684,0-4.877-2.181-4.877-4.876v-25.231c0-2.693,2.184-4.878,4.877-4.878h203.263
					c2.315,0,4.19,1.877,4.19,4.191l0,0c0,2.314-1.876,4.19-4.19,4.19H446.095z"/>
				<path style="fill:#FFFFFF;" d="M446.697,1527.581H271.552c-3.419,0-6.19-2.771-6.19-6.19v-5.132c0-3.42,2.772-6.191,6.191-6.191
					h175.145V1527.581z"/>
			</g>
			<g>
				<path style="fill:#3F964F;" d="M224.753,1472.246v19.384h-4.77c-2.314,0-4.19,2.076-4.19,4.638v0.78
					c0,2.561,1.876,4.637,4.19,4.637h203.263c2.685,0,4.877-2.413,4.877-5.397v-27.918c0-2.981-2.184-5.397-4.877-5.397H219.982
					c-2.314,0-4.19,2.077-4.19,4.637l0,0c0,2.561,1.876,4.638,4.19,4.638H224.753z"/>
				<path style="fill:#FFFFFF;" d="M224.15,1491.627h174.823c3.597,0,6.513-2.917,6.513-6.513v-6.355
					c0-3.597-2.916-6.512-6.513-6.512H224.15V1491.627z"/>
			</g>
			<path style="fill:#E62552;" d="M419.643,1445.011H245.252c-7.121,0-12.894-5.772-12.894-12.894v-5.642
				c0-7.121,5.772-12.894,12.894-12.894h174.39c7.121,0,12.893,5.772,12.893,12.894v5.642
				C432.535,1439.238,426.763,1445.011,419.643,1445.011z"/>
			<path style="fill:#768FDB;" d="M437.555,1462.972H253.5c-4.452,0-8.061-3.609-8.061-8.062v-1.837
				c0-4.453,3.609-8.063,8.061-8.063h184.055c4.452,0,8.061,3.609,8.061,8.063v1.838
				C445.615,1459.362,442.007,1462.972,437.555,1462.972z"/>
		</g>
	</g>
</g>
</svg>
