<?xml version="1.0" encoding="utf-8"?>
<!-- Generator: Adobe Illustrator 27.5.0, SVG Export Plug-In . SVG Version: 6.00 Build 0)  -->
<svg version="1.1" id="Слой_1" xmlns="http://www.w3.org/2000/svg" xmlns:xlink="http://www.w3.org/1999/xlink" x="0px" y="0px"
	 viewBox="0 0 3050 2000" style="enable-background:new 0 0 3050 2000;" xml:space="preserve">
<rect y="-0.001" style="fill:#FFFFFF;" width="3050" height="2000"/>
<g>
	<path style="fill:#95A6DB;" d="M2951.889,1853.381H143.816c-5.912,0-10.704-4.793-10.704-10.705v-0.811
		c0-5.911,4.792-10.704,10.704-10.704h2808.072c5.912,0,10.704,4.793,10.704,10.704v0.811
		C2962.593,1848.588,2957.801,1853.381,2951.889,1853.381z"/>
	<path style="fill:#E3EAFF;" d="M158.815,1840.373c-216.181-406.047-137.699-802.529,139.038-1004.06
		c281.314-204.864-32.689-564.959,527.22-737.425c289.651-89.221,549.922,92.153,833.83,102.726
		c254.401,9.473,706.404-147.097,964.701-47.694c172.731,57.221,289.574,248.247,276.697,440.254
		c-6.654,99.218-64.745,273.16-3.74,348.535c257.473,318.113,122.564,543.883,21.658,893.207
		C2918.243,1835.906,158.815,1840.373,158.815,1840.373z"/>
	<path style="fill:#BDCDFF;" d="M137.326,1876.069c-26.87,0-48.651-21.782-48.651-48.651v-85.805
		c0-21.439,15.407-38.819,34.412-38.819c0,0,770.939-133.248,1418.798-140.39c647.858-7.144,1416.301,140.39,1416.301,140.39
		c19.006,0,34.412,17.38,34.412,38.819v85.805c0,26.869-21.782,48.651-48.651,48.651H137.326z"/>
	<g>
		<path style="fill:#FFFFFF;" d="M1331.165,1610.426H735.606V402.846c0-39.193,31.773-70.966,70.967-70.966h453.627
			c39.193,0,70.965,31.773,70.965,70.966V1610.426z"/>
		<path style="fill:#E3EAFF;" d="M1273.729,553.018H790.776V427.916c0-18.042,14.626-32.668,32.668-32.668h417.616
			c18.042,0,32.668,14.626,32.668,32.668V553.018z"/>
		<rect x="790.776" y="632.282" style="fill:#E3EAFF;" width="482.952" height="157.77"/>
		<rect x="790.776" y="869.314" style="fill:#E3EAFF;" width="482.952" height="157.77"/>
		<rect x="790.776" y="1106.347" style="fill:#E3EAFF;" width="482.952" height="157.77"/>
		<g>
			<rect x="800.336" y="418.679" style="fill:#C2D1FF;" width="34.913" height="134.345"/>
			<rect x="834.669" y="429.408" style="fill:#C2D1FF;" width="25.256" height="123.616"/>
			
				<rect x="990.78" y="418.679" transform="matrix(-1 -1.224647e-16 1.224647e-16 -1 2016.4727 971.7031)" style="fill:#C2D1FF;" width="34.913" height="134.345"/>
			
				<rect x="1151.926" y="418.679" transform="matrix(-1 -1.224647e-16 1.224647e-16 -1 2338.7656 971.7031)" style="fill:#C2D1FF;" width="34.913" height="134.345"/>
			
				<rect x="1228.061" y="418.758" transform="matrix(-0.9411 -0.3383 0.3383 -0.9411 2241.6311 1362.5028)" style="fill:#C2D1FF;" width="22.948" height="134.345"/>
			
				<rect x="1091.362" y="449.763" transform="matrix(-1 -1.224647e-16 1.224647e-16 -1 2208.3701 1002.787)" style="fill:#C2D1FF;" width="25.646" height="103.261"/>
			
				<rect x="1075.331" y="424.499" transform="matrix(-1 -1.224647e-16 1.224647e-16 -1 2166.8301 977.5229)" style="fill:#CFDBFF;" width="16.169" height="128.525"/>
			
				<rect x="966.102" y="429.408" transform="matrix(-1 -1.224647e-16 1.224647e-16 -1 1957.4614 982.4321)" style="fill:#CFDBFF;" width="25.256" height="123.616"/>
			
				<rect x="1025.65" y="443.227" transform="matrix(-1 -1.224647e-16 1.224647e-16 -1 2076.5562 996.2504)" style="fill:#CFDBFF;" width="25.256" height="109.797"/>
			
				<rect x="1050.254" y="433.819" transform="matrix(-1 -1.224647e-16 1.224647e-16 -1 2125.7651 986.8432)" style="fill:#CFDBFF;" width="25.256" height="119.205"/>
			
				<rect x="1116.969" y="404.386" transform="matrix(-1 -1.224647e-16 1.224647e-16 -1 2269.0518 957.4101)" style="fill:#CFDBFF;" width="35.113" height="148.638"/>
			
				<rect x="875.998" y="429.017" transform="matrix(0.9602 -0.2795 0.2795 0.9602 -101.8549 267.2075)" style="fill:#C2D1FF;" width="20.428" height="123.616"/>
		</g>
		<g>
			<rect x="811.065" y="643.97" style="fill:#CFDBFF;" width="41.274" height="145.376"/>
			<rect x="852.078" y="659.119" style="fill:#C2D1FF;" width="31.675" height="130.227"/>
			<rect x="883.115" y="650.251" style="fill:#C2D1FF;" width="31.675" height="139.095"/>
			<rect x="914.521" y="685.353" style="fill:#CFDBFF;" width="31.675" height="103.993"/>
			<rect x="946.297" y="660.966" style="fill:#C2D1FF;" width="31.675" height="128.379"/>
			<rect x="1009.109" y="640.645" style="fill:#C2D1FF;" width="31.675" height="148.701"/>
			<rect x="1040.885" y="648.773" style="fill:#C2D1FF;" width="31.675" height="140.573"/>
			
				<rect x="1091.213" y="648.372" transform="matrix(0.9633 -0.2683 0.2683 0.9633 -152.3606 322.2611)" style="fill:#C2D1FF;" width="23.692" height="140.573"/>
			<rect x="977.703" y="675.007" style="fill:#CFDBFF;" width="31.675" height="114.338"/>
			<rect x="1177.226" y="675.007" style="fill:#CFDBFF;" width="31.675" height="114.338"/>
			<rect x="1208.632" y="653.206" style="fill:#CFDBFF;" width="27.241" height="136.139"/>
			<rect x="1235.234" y="642.862" style="fill:#C2D1FF;" width="27.242" height="146.484"/>
		</g>
		<rect x="816.456" y="904.639" style="fill:#C2D1FF;" width="26.632" height="122.064"/>
		<rect x="879.743" y="880.797" style="fill:#C2D1FF;" width="26.632" height="145.906"/>
		<rect x="905.424" y="890.887" style="fill:#C2D1FF;" width="19.882" height="135.816"/>
		<rect x="925.144" y="911.064" style="fill:#C2D1FF;" width="19.882" height="115.639"/>
		<rect x="943.946" y="899.601" style="fill:#C2D1FF;" width="19.882" height="127.103"/>
		<rect x="842.596" y="893.638" style="fill:#CFDBFF;" width="18.964" height="133.065"/>
		<rect x="791.12" y="1141.475" style="fill:#C2D1FF;" width="26.632" height="122.064"/>
		<rect x="817.26" y="1130.474" style="fill:#CFDBFF;" width="18.964" height="133.065"/>
		<rect x="860.94" y="914.275" style="fill:#CFDBFF;" width="18.964" height="112.428"/>
		<rect x="963.666" y="914.275" style="fill:#CFDBFF;" width="18.965" height="112.428"/>
		<rect x="1116.941" y="885.129" style="fill:#C2D1FF;" width="19.882" height="141.574"/>
		<rect x="1160.751" y="877.266" style="fill:#C2D1FF;" width="34.231" height="149.438"/>
		<rect x="1136.661" y="901.475" style="fill:#CFDBFF;" width="24.622" height="125.228"/>
		
			<rect x="999.679" y="915" transform="matrix(0.9499 -0.3126 0.3126 0.9499 -253.1854 363.3033)" style="fill:#CFDBFF;" width="13.388" height="112.428"/>
		
			<rect x="1090.369" y="939.651" transform="matrix(-0.9499 -0.3126 0.3126 -0.9499 1831.7523 2260.135)" style="fill:#C2D1FF;" width="13.388" height="87.143"/>
		
			<rect x="1047.205" y="1128.813" transform="matrix(-1 -1.224647e-16 1.224647e-16 -1 2129.3223 2391.9707)" style="fill:#C2D1FF;" width="34.913" height="134.346"/>
		
			<rect x="1022.527" y="1139.543" transform="matrix(-1 -1.224647e-16 1.224647e-16 -1 2070.311 2402.7012)" style="fill:#CFDBFF;" width="25.256" height="123.615"/>
		
			<rect x="1082.075" y="1153.36" transform="matrix(-1 -1.224647e-16 1.224647e-16 -1 2189.4063 2416.5193)" style="fill:#CFDBFF;" width="25.257" height="109.799"/>
		
			<rect x="1106.679" y="1143.953" transform="matrix(-1 -1.224647e-16 1.224647e-16 -1 2238.6147 2407.1123)" style="fill:#CFDBFF;" width="25.256" height="119.206"/>
	</g>
	<g>
		<path style="fill:#FFFFFF;" d="M2315.316,1548.517h-850.539V330.83c0-47.289,38.336-85.625,85.625-85.625h679.289
			c47.289,0,85.625,38.336,85.625,85.625V1548.517z"/>
		<path style="fill:#E3EAFF;" d="M2233.289,470.625h-689.723V349.217c0-21.77,17.648-39.418,39.417-39.418h610.889
			c21.77,0,39.417,17.648,39.417,39.418V470.625z"/>
		<rect x="1543.566" y="551.425" style="fill:#E3EAFF;" width="689.723" height="160.826"/>
		<rect x="1543.566" y="793.05" style="fill:#E3EAFF;" width="689.723" height="160.825"/>
		<rect x="1543.566" y="1035.696" style="fill:#E3EAFF;" width="680.947" height="158.779"/>
		<g>
			
				<rect x="1982.473" y="819.387" transform="matrix(-1 -1.224647e-16 1.224647e-16 -1 3999.8574 1773.1187)" style="fill:#C2D1FF;" width="34.912" height="134.345"/>
			
				<rect x="1957.795" y="830.115" transform="matrix(-1 -1.224647e-16 1.224647e-16 -1 3940.8457 1783.847)" style="fill:#C2D1FF;" width="25.256" height="123.617"/>
			<rect x="1792.027" y="819.387" style="fill:#C2D1FF;" width="34.913" height="134.345"/>
			<rect x="1630.881" y="819.387" style="fill:#C2D1FF;" width="34.913" height="134.345"/>
			
				<rect x="1566.711" y="819.466" transform="matrix(0.9411 -0.3382 0.3382 0.9411 -206.8803 586.0768)" style="fill:#C2D1FF;" width="22.948" height="134.346"/>
			<rect x="1700.712" y="850.47" style="fill:#C2D1FF;" width="25.646" height="103.262"/>
			<rect x="1726.221" y="825.206" style="fill:#CFDBFF;" width="16.169" height="128.525"/>
			<rect x="1826.361" y="830.115" style="fill:#CFDBFF;" width="25.256" height="123.617"/>
			<rect x="1766.814" y="843.934" style="fill:#CFDBFF;" width="25.256" height="109.798"/>
			<rect x="1742.209" y="834.528" style="fill:#CFDBFF;" width="25.257" height="119.204"/>
			<rect x="1665.638" y="805.094" style="fill:#CFDBFF;" width="35.112" height="148.638"/>
			
				<rect x="1921.295" y="829.725" transform="matrix(-0.9601 -0.2795 0.2795 -0.9601 3536.8569 2287.3889)" style="fill:#C2D1FF;" width="20.429" height="123.616"/>
		</g>
		
			<rect x="1956.438" y="337.395" transform="matrix(-1 -1.224647e-16 1.224647e-16 -1 3953.2109 807.9472)" style="fill:#CFDBFF;" width="40.336" height="133.157"/>
		
			<rect x="2078.875" y="321.661" transform="matrix(-1 -1.224647e-16 1.224647e-16 -1 4185.7168 792.2128)" style="fill:#CFDBFF;" width="27.967" height="148.892"/>
		
			<rect x="2106.154" y="343.865" transform="matrix(-1 -1.224647e-16 1.224647e-16 -1 4232.6621 814.4169)" style="fill:#CFDBFF;" width="20.354" height="126.688"/>
		
			<rect x="2125.82" y="337.139" transform="matrix(-1 -1.224647e-16 1.224647e-16 -1 4271.9932 807.6913)" style="fill:#C2D1FF;" width="20.353" height="133.413"/>
		
			<rect x="2181.311" y="344.753" transform="matrix(-1 -1.224647e-16 1.224647e-16 -1 4387.9385 815.3051)" style="fill:#C2D1FF;" width="25.317" height="125.799"/>
		
			<rect x="2166.07" y="355.301" transform="matrix(-1 -1.224647e-16 1.224647e-16 -1 4347.9346 825.8529)" style="fill:#CFDBFF;" width="15.794" height="115.252"/>
		
			<rect x="2145.454" y="330.921" transform="matrix(-1 -1.224647e-16 1.224647e-16 -1 4311.2617 801.4731)" style="fill:#CFDBFF;" width="20.354" height="139.631"/>
		
			<rect x="1925.738" y="351.271" transform="matrix(-1 -1.224647e-16 1.224647e-16 -1 3882.4316 821.8227)" style="fill:#C2D1FF;" width="30.955" height="119.282"/>
		
			<rect x="1895.406" y="343.148" transform="matrix(-1 -1.224647e-16 1.224647e-16 -1 3821.7676 813.7001)" style="fill:#C2D1FF;" width="30.955" height="127.404"/>
		
			<rect x="1864.714" y="375.299" transform="matrix(-1 -1.224647e-16 1.224647e-16 -1 3760.3818 845.8515)" style="fill:#CFDBFF;" width="30.954" height="95.253"/>
		
			<rect x="1833.66" y="352.962" transform="matrix(-1 -1.224647e-16 1.224647e-16 -1 3698.2754 823.5141)" style="fill:#C2D1FF;" width="30.955" height="117.59"/>
		
			<rect x="1772.275" y="334.349" transform="matrix(-1 -1.224647e-16 1.224647e-16 -1 3575.5059 804.9008)" style="fill:#C2D1FF;" width="30.955" height="136.204"/>
		
			<rect x="1741.222" y="341.794" transform="matrix(-1 -1.224647e-16 1.224647e-16 -1 3513.3984 812.3461)" style="fill:#C2D1FF;" width="30.955" height="128.758"/>
		<polygon style="fill:#C2D1FF;" points="1681.834,464.914 1704.14,470.736 1740.997,346.699 1718.691,340.877 		"/>
		<polygon style="fill:#C2D1FF;" points="2045.043,467.869 2032.416,470.996 1996.494,346.699 2009.123,343.573 		"/>
		
			<rect x="1790.654" y="577.471" transform="matrix(-1 -1.224647e-16 1.224647e-16 -1 3621.6445 1288.0981)" style="fill:#CFDBFF;" width="40.336" height="133.156"/>
		
			<rect x="1918.604" y="563.447" transform="matrix(-1 -1.224647e-16 1.224647e-16 -1 3867.2715 1274.0741)" style="fill:#CFDBFF;" width="30.065" height="147.18"/>
		
			<rect x="1948.184" y="573.767" transform="matrix(-1 -1.224647e-16 1.224647e-16 -1 3922.9912 1284.3936)" style="fill:#C2D1FF;" width="26.624" height="136.86"/>
		
			<rect x="2050.68" y="573.767" transform="matrix(-1 -1.224647e-16 1.224647e-16 -1 4127.9844 1284.3936)" style="fill:#C2D1FF;" width="26.625" height="136.86"/>
		
			<rect x="2077.508" y="592.339" transform="matrix(-1 -1.224647e-16 1.224647e-16 -1 4174.0723 1302.9662)" style="fill:#C2D1FF;" width="19.057" height="118.288"/>
		
			<rect x="2151.112" y="582.709" transform="matrix(-1 -1.224647e-16 1.224647e-16 -1 4319.2188 1293.3358)" style="fill:#C2D1FF;" width="16.994" height="127.918"/>
		
			<rect x="2096.77" y="560.697" transform="matrix(-1 -1.224647e-16 1.224647e-16 -1 4207.7813 1271.3236)" style="fill:#CFDBFF;" width="14.242" height="149.93"/>
		
			<rect x="2110.527" y="570.326" transform="matrix(-1 -1.224647e-16 1.224647e-16 -1 4240.7988 1280.953)" style="fill:#CFDBFF;" width="19.744" height="140.301"/>
		
			<rect x="2129.787" y="612.977" transform="matrix(-1 -1.224647e-16 1.224647e-16 -1 4281.3838 1323.6039)" style="fill:#CFDBFF;" width="21.81" height="97.65"/>
		
			<rect x="1974.323" y="557.257" transform="matrix(-1 -1.224647e-16 1.224647e-16 -1 3968.3916 1267.8837)" style="fill:#CFDBFF;" width="19.745" height="153.37"/>
		
			<rect x="2028.463" y="583.396" transform="matrix(-1 -1.224647e-16 1.224647e-16 -1 4079.627 1294.0229)" style="fill:#CFDBFF;" width="22.701" height="127.231"/>
		
			<rect x="1759.954" y="591.346" transform="matrix(-1 -1.224647e-16 1.224647e-16 -1 3550.8643 1301.9731)" style="fill:#C2D1FF;" width="30.956" height="119.281"/>
		
			<rect x="1729.623" y="583.225" transform="matrix(-1 -1.224647e-16 1.224647e-16 -1 3490.2012 1293.8514)" style="fill:#C2D1FF;" width="30.955" height="127.402"/>
		<polygon style="fill:#C2D1FF;" points="1879.261,707.946 1866.633,711.072 1830.711,586.775 1843.339,583.647 		"/>
		<polygon style="fill:#CFDBFF;" points="1729.551,706.151 1711.047,710.914 1674.558,586.775 1693.061,582.012 		"/>
		
			<rect x="1802.968" y="365.823" transform="matrix(-1 -1.224647e-16 1.224647e-16 -1 3636.8906 836.3754)" style="fill:#CFDBFF;" width="30.955" height="104.729"/>
		
			<rect x="2028.463" y="1075.021" transform="matrix(-1 -1.224647e-16 1.224647e-16 -1 4087.8809 2269.323)" style="fill:#C2D1FF;" width="30.955" height="119.28"/>
		
			<rect x="1998.133" y="1066.898" transform="matrix(-1 -1.224647e-16 1.224647e-16 -1 4027.2207 2261.2002)" style="fill:#C2D1FF;" width="30.955" height="127.403"/>
		
			<rect x="1967.439" y="1099.05" transform="matrix(-1 -1.224647e-16 1.224647e-16 -1 3965.834 2293.3516)" style="fill:#CFDBFF;" width="30.955" height="95.252"/>
		
			<rect x="1936.387" y="1076.713" transform="matrix(-1 -1.224647e-16 1.224647e-16 -1 3903.7285 2271.0146)" style="fill:#C2D1FF;" width="30.955" height="117.589"/>
		
			<rect x="1875.001" y="1058.1" transform="matrix(-1 -1.224647e-16 1.224647e-16 -1 3780.958 2252.4014)" style="fill:#C2D1FF;" width="30.956" height="136.202"/>
		
			<rect x="1905.693" y="1089.574" transform="matrix(-1 -1.224647e-16 1.224647e-16 -1 3842.3418 2283.876)" style="fill:#CFDBFF;" width="30.955" height="104.728"/>
		
			<rect x="1607.98" y="365.823" transform="matrix(-1 -1.224647e-16 1.224647e-16 -1 3246.916 836.3754)" style="fill:#CFDBFF;" width="30.955" height="104.729"/>
		
			<rect x="1581.62" y="345.856" transform="matrix(-1 -1.224647e-16 1.224647e-16 -1 3189.8623 816.4081)" style="fill:#CFDBFF;" width="26.622" height="124.696"/>
		
			<rect x="1555.622" y="336.38" transform="matrix(-1 -1.224647e-16 1.224647e-16 -1 3137.8662 806.932)" style="fill:#C2D1FF;" width="26.622" height="134.172"/>
		<rect x="1544.184" y="597.154" style="fill:#CFDBFF;" width="19.949" height="113.504"/>
		<rect x="1563.445" y="577.205" style="fill:#C2D1FF;" width="22.012" height="133.454"/>
		<rect x="1584.082" y="584.772" style="fill:#C2D1FF;" width="26.14" height="125.886"/>
		<rect x="1632.922" y="558.633" style="fill:#C2D1FF;" width="26.141" height="152.025"/>
		<rect x="1658.375" y="571.703" style="fill:#C2D1FF;" width="18.572" height="138.956"/>
		<rect x="1610.222" y="600.594" style="fill:#CFDBFF;" width="22.7" height="110.064"/>
	</g>
	<g>
		<path style="fill:#F37A50;" d="M1992.806,1280.396l64.354,2.4c0,0,12.068,50.511,15.479,93.865
			c2.807,35.689-9.305,94.316-9.283,140.798c0.006,8.594,6.006,22.125,7.023,28.633c3.67,23.489-64.323,11.465-64.323,11.465
			c4.226-2.146,22.288-26.137,22.878-34.378c1.938-27.127-9.314-91.261-20.359-146.67
			C1998.773,1327.329,1992.806,1280.396,1992.806,1280.396z"/>
		<path style="fill:#F37A50;" d="M2176.195,1253.236c0,0,13.074,79.834,16.484,123.188c2.808,35.688-5.211,88.203-5.19,134.683
			c0.004,8.598,6.008,22.128,7.024,28.635c3.67,23.488-10.138,6.346-16.653,12.861c-6.515,6.514-15.865,2.488-15.865,2.488
			l-35.167,0.725c0,0,1.301-1.892,8.817-4.753c3.518-1.941,17.195-25.976,17.421-34.233c2.678-97.522-82.182-254.694-82.182-254.694
			L2176.195,1253.236z"/>
		<path style="fill:#18161A;" d="M2155.969,1551.714c13.363,1.215,22.19-7.535,32.79-14.356c-0.48,7.983,0.068,11.199,0.057,19.175
			c-5.583,3.729-9.406,8.239-11.418,10.974c-1.16,1.577-2.932,2.569-4.883,2.721l-30.506,2.379
			C2142.009,1572.605,2151.696,1551.326,2155.969,1551.714z"/>
		<path style="fill:#070C4F;" d="M2136.387,1550.57c0,0,0.776,1.36,3.229,0.598c7.344-2.284,16.447-9.663,26.203-16.534
			c7.371-5.194,17.207-13.266,23.582-12.495c4.592,0.554,12.084,11.771,10.874,22.493c-0.511,4.519-1.854,7.943-6.313,13.236
			c-4.458,5.293-7.132,22.935-7.132,22.935l-5.219-0.162c0,0-0.006-31.142-16.42-24c-11.85,5.153-14.506,18.203-25.033,15.657
			c-8.601-2.772-18.892-8.171-17.167-14.373C2123.965,1554.429,2127.447,1553.291,2136.387,1550.57z"/>
		<path style="fill:#18161A;" d="M2031.836,1558.063c13.363,1.215,22.189-7.535,32.789-14.356
			c-0.482,7.98,0.068,11.199,0.057,19.174c-5.582,3.729-9.406,8.24-11.418,10.974c-1.162,1.577-2.932,2.568-4.883,2.721
			l-33.207,1.97C2015.174,1578.546,2027.561,1557.676,2031.836,1558.063z"/>
		<path style="fill:#070C4F;" d="M1999.24,1560.03c5.748-1.916,7.086-2.638,7.086-2.638c8.166,2.711,23.893-8.333,35.359-16.412
			c7.369-5.189,17.488-13.436,23.863-12.667c4.592,0.555,11.219,15.469,12.217,22.268c0.662,4.499-0.98,9.175-3.52,15.427
			c-3.816,9.389-8.357,21.437-8.357,21.437l-5.219-0.164c0,0-0.004-31.139-16.42-23.999c-11.85,5.156-13.385,15.149-28.227,15.365
			C2000.215,1578.88,1975.248,1568.028,1999.24,1560.03z"/>
		<path style="fill:#F37A50;" d="M2034.848,638.271c7.008-17.746,18.738-25.348,18.738-25.348l2.098-0.89l91.716,11.838
			c0,0-28.185,72.091-29.772,73.986c-1.59,1.895-49.559,56.49-49.559,56.49s-25.471,8.788-37.23-12.286
			C2009.41,703.667,2027.842,656.018,2034.848,638.271z"/>
		<path style="fill:#F37A50;" d="M2130.694,831.196l60.301,8.71c2.087,5.218,28.21,95.266,21.948,115.096
			c-6.262,19.83-49.66,64.616-74.71,75.055c-25.048,10.435-26.091-28.18-26.091-28.18l47.573-58.356L2130.694,831.196z"/>
		<path style="fill:#3F964F;" d="M1950.83,1076.265c11.815-73.257,43.574-119.212,43.574-119.212
			c5.531-37.693-18.156-111.248-7.34-134.641l29.803-58.282l39.578-9.341l104.78,11.69c0,0-38.972,196.826-39.386,197.15
			c44.396,55.085,65.657,157.976,79.157,196.304c20.386,57.879,68.101,113.814,68.101,113.814
			c-46.558-18.624-80.896,39.229-134.104,45.879c-53.208,6.65-102.931-1.771-124.146-4.934
			c-33.622-5.012-60.018,17.267-60.018,17.267C1948.181,1327.425,1933.367,1184.537,1950.83,1076.265z"/>
		<g>
			<path style="fill:#F37A50;" d="M1811.053,656.403c6.126,7.303,10.867,16.007,23.493,15.783c0,0,10.818,28.469,22.155,50.728
				c0,0,12.764-40.423,12.75-40.445c-5.571-8.529-14.506-25.359-17.49-35.847c-0.775-2.724-1.41-5.496-2.155-8.237
				c-1.674-6.72-2.836-13.728-9.831-19.733c-11.475-9.851-24.461-28.751-27.113-29.267c-4.635-1.113-2.99,12.65,4.146,19.509
				c11.398,10.956,7.43,15.778,7.43,15.778s-12.012,2.849-14.215,8.48C1809.223,635.709,1803.893,647.867,1811.053,656.403z"/>
			<path style="fill:#F37A50;" d="M1856.944,660.457l58.368,104.082c0,0,77.264-0.476,99.184-2.04
				c29.955-2.142,37.551,26.122,37.551,26.122c0.459,13.963-2.822,49.602-59.592,50.204c-48.164,0.407-84.987-10.854-112.245-28.571
				c-27.258-17.719-46.081-136.345-45.664-138.067C1846.383,657.084,1856.944,660.457,1856.944,660.457z"/>
		</g>
		<path style="fill:#070C4F;" d="M2044.52,594.126c26.254-1.203,53.264-35.005,96.207-16.375
			c85.562,37.119,59.183,112.843,99.011,132.758c47.82,23.91,162.888,36.959,110.528,108.5
			c27.293,2.065,58.982,68.004-13.394,84.273c10.881,19.318-19.09,75.026-95.52,37.923c-22.185,58.82-84.119,6.106-110.703-36.429
			c-14.944-23.91-25.38-54.269-22.415-74.718c-53.799,49.313-69.461-99.406-67.025-152.966
			C2026.539,678.494,1964.576,597.784,2044.52,594.126z"/>
		<path style="fill:#0E6A41;" d="M1934.074,763.775c0,0-3.463,30.781-3.848,72.335c24.625,5.771,125.818,20.777,123.51-43.477
			C2051.813,748.769,1978.322,759.927,1934.074,763.775z"/>
	</g>
	<g>
		<g id="с">
			<path id="с_8_" style="fill:#4364CC;" d="M641.931,1713.047L641.931,1713.047c7.075,0,12.81-5.734,12.81-12.809v-226.967h-25.62
				v226.967C629.121,1707.313,634.856,1713.047,641.931,1713.047z"/>
			<path id="с_7_" style="fill:#4364CC;" d="M552.042,1713.047L552.042,1713.047c7.075,0,12.81-5.734,12.81-12.809v-226.967h-25.62
				v226.967C539.233,1707.313,544.968,1713.047,552.042,1713.047z"/>
			<path id="с_6_" style="fill:#4364CC;" d="M434.095,1713.047L434.095,1713.047c7.075,0,12.81-5.734,12.81-12.809v-226.967h-25.62
				v226.967C421.285,1707.313,427.021,1713.047,434.095,1713.047z"/>
			<path id="с_5_" style="fill:#4364CC;" d="M344.207,1713.047L344.207,1713.047c7.076,0,12.811-5.734,12.811-12.809v-226.967
				h-25.621v226.967C331.397,1707.313,337.132,1713.047,344.207,1713.047z"/>
			
				<rect id="с_3_" x="322.951" y="1099.546" transform="matrix(-1 -1.224647e-16 1.224647e-16 -1 778.3033 2516.5957)" style="fill:#768FDB;" width="132.401" height="317.504"/>
			<path style="fill:#95ADF5;" d="M737.662,1447.184h-384.12v-92.189h330.465c29.633,0,53.655,24.022,53.655,53.654V1447.184z"/>
			<path id="с_2_" style="fill:#4364CC;" d="M353.543,1130.139v276.385c0,3.073,2.492,5.565,5.565,5.565h348.295
				c16.896,0,30.592,13.696,30.592,30.592l0,0c0,16.895-13.696,30.591-30.592,30.591h-353.86H322.95
				c-16.895,0-30.591-13.696-30.591-30.591v-30.592v-281.95c0-16.896,13.696-30.593,30.591-30.593h0.001
				C339.846,1099.546,353.543,1113.243,353.543,1130.139z"/>
		</g>
		<g id="c_4_">
			<path style="fill:#C4204A;" d="M582.05,1015.312c-58.321-15.131,25.058,131.97,25.058,131.97s3.49,85.723,27.722,80.362
				c0,0,45.128,17.712,42.055-29.166C674.107,1156.115,638.324,1029.912,582.05,1015.312z"/>
			<path style="fill:#C4204A;" d="M416.052,1017.198l-1.258,100.605c0,0-8.744,100.675-30.181,113.181
				c-15.091,8.804-55.507,11.808-52.433-35.072C334.958,1153.55,348.848,1032.433,416.052,1017.198z"/>
			<rect x="476.73" y="1002.668" style="fill:#F37A50;" width="54.953" height="35.438"/>
			<g>
				<path style="fill:#F37A50;" d="M798.796,1677.656l14.34,43.514l40.796-31.786c-1.475-1.253,3.08-30.224,2.736-46.79
					l-53.809-1.885C800.204,1657.676,798.796,1677.656,798.796,1677.656z"/>
				<g>
					<g>
						<path style="fill:#201D40;" d="M866.752,1724.645c0,0,14.083-20.38,30.184-20.625c0,0,30.091,3.791,39.821,17.219
							c3.056,4.217,1.196,12.645-0.492,18.006c-1.055,3.348-4.191,6.846-13.312,9.045c-13.472,3.25-31.432,4.578-63.62-6.15
							c-38.615-12.871-45.175-9.103-59.384-14.775c-14.727-5.878-8.632-23.953-3.302-41.598
							C796.646,1685.766,806.108,1708.449,866.752,1724.645z"/>
					</g>
					<g>
						<g>
							<path style="fill:#2C2858;" d="M857.839,1678.17c0,0,16.82,11.822,39.402,18.654c12.633,3.822,46.393,12.791,39.328,35.226
								c-1.054,3.347-4.191,6.845-13.311,9.044c-13.471,3.25-31.431,4.578-63.619-6.15c-38.615-12.871-45.176-9.104-59.384-14.776
								c-14.727-5.879-6.353-26.293-1.022-43.939l0,0c0.06,4.574,1.352,16.658,27.934,29.215
								C835.104,1709.191,830.894,1672.781,857.839,1678.17z"/>
						</g>
					</g>
					<g>
						<path style="fill:#494C7F;" d="M850.858,1705.302c1.316,0.003,2.539-0.837,2.964-2.157
							c3.536-10.967,15.119-10.967,15.61-10.968c1.711,0.019,3.124-1.351,3.149-3.064c0.025-1.713-1.332-3.123-3.044-3.156
							c-5.748-0.119-17.659,2.944-21.636,15.279c-0.527,1.635,0.371,3.388,2.006,3.915
							C850.223,1705.254,850.544,1705.302,850.858,1705.302z"/>
					</g>
					<g>
						<path style="fill:#494C7F;" d="M864.871,1712.059c1.315,0.002,2.539-0.837,2.964-2.156
							c3.536-10.967,15.119-10.968,15.61-10.969c1.711,0.019,3.123-1.352,3.149-3.063c0.025-1.713-1.332-3.124-3.044-3.156
							c-5.748-0.12-17.659,2.943-21.636,15.279c-0.526,1.635,0.371,3.387,2.006,3.914
							C864.236,1712.01,864.557,1712.059,864.871,1712.059z"/>
					</g>
				</g>
				<path style="fill:#201D40;" d="M632.191,1301.001c80.1,22.314,198.04,86.547,208.357,99.592
					c21.309,26.946,11.722,101.938,19.617,269.237l-65.649-1.752c-14.826-128.915-45.954-179.014-45.597-227.569
					c0,0-62.867-1.38-153.559-46.237c-44.707-22.11-91.093-47.382-73.374-87.977C536.104,1273.95,555.815,1279.725,632.191,1301.001
					z"/>
				<path style="fill:#F37A50;" d="M656.188,1706.074l38.589,21.887l18.627-30.785c-1.456-1.274-5.127-31.846-5.221-48.414
					l-51.649,4.084C658.039,1669.682,652.367,1689.605,656.188,1706.074z"/>
				<path style="fill:#2C2858;" d="M546.664,1303.672c93.526,12.538,161.657,105.564,169.108,120.434
					c15.16,30.246-7.376,91.329,1.842,243.973l-69.052-4.539c-10.527-79.155-27.542-141.005-26.704-199.014
					c0,0-49.069-36.052-147.491-59.509c-53.839-12.831-69.935-21.402-79.814-56.792c-3.361-12.041-1.948-42.347,3.52-48.479
					C422.264,1272.61,482.567,1295.079,546.664,1303.672z"/>
				<g>
					<g>
						<path style="fill:#201D40;" d="M711.695,1741.631c0,0,18.07-16.943,33.859-13.783c0,0,28.61,10.064,35.284,25.244
							c2.096,4.767-1.502,12.611-4.285,17.496c-1.739,3.049-5.543,5.805-14.922,6.028c-13.853,0.329-31.689-2.166-60.884-19.454
							c-35.024-20.738-42.232-18.441-54.922-26.988c-13.151-8.857-3.376-25.236,5.563-41.355
							C651.387,1688.818,655.841,1712.988,711.695,1741.631z"/>
					</g>
					<g>
						<g>
							<path style="fill:#2C2858;" d="M712.802,1694.322c0,0,13.942,15.109,34.57,26.559c11.542,6.404,42.643,22.304,30.998,42.738
								c-1.737,3.05-5.543,5.806-14.922,6.029c-13.854,0.328-31.689-2.168-60.884-19.455c-35.023-20.738-42.232-18.441-54.92-26.986
								c-13.152-8.858-0.654-27.044,8.283-43.164l0,0c-0.907,4.483-2.197,16.566,21.132,34.457
								C684.025,1719.841,687.602,1683.362,712.802,1694.322z"/>
						</g>
					</g>
					<g>
						<path style="fill:#494C7F;" d="M694.114,1719.275c1.301,0.189,2.632-0.469,3.239-1.713c5.058-10.354,16.524-8.711,17.01-8.641
							c1.691,0.261,3.284-0.894,3.552-2.587c0.269-1.69-0.875-3.28-2.564-3.556c-5.673-0.935-17.897,0.408-23.586,12.053
							c-0.754,1.543-0.114,3.406,1.43,4.159C693.493,1719.137,693.803,1719.23,694.114,1719.275z"/>
					</g>
					<g>
						<path style="fill:#494C7F;" d="M707.026,1727.955c1.302,0.188,2.632-0.47,3.24-1.715c5.058-10.354,16.523-8.711,17.01-8.641
							c1.691,0.261,3.284-0.895,3.552-2.586c0.269-1.691-0.874-3.28-2.564-3.555c-5.673-0.935-17.898,0.406-23.586,12.051
							c-0.754,1.545-0.114,3.406,1.43,4.16C706.405,1727.814,706.715,1727.909,707.026,1727.955z"/>
					</g>
				</g>
			</g>
			<g id="v_1_">
				<path id="h-5_2_" style="fill:#E62552;" d="M416.052,1017.198c0,0,36.482-8.357,55.203-5.493c34.446,28.982,65.723,0,65.723,0
					c21.005-0.706,45.071,3.607,45.071,3.607c0,57.593,37.906,289.07,37.906,289.07s-26.981,32.608-115.73,32.608
					c-53.814-0.35-113.935-15.633-113.935-15.633S416.052,1074.635,416.052,1017.198z"/>
			</g>
			<g>
				<path style="fill:#2C2858;" d="M456.54,988.824c-29.827,3.542-45.417-34.55-45.417-34.55
					c-18.27-3.019-15.188-21.213-15.188-21.213c-8.667-2.657-20.215-11.963-16.496-28.502c3.148-14.003,16.882-13.343,18.652-29.745
					c1.419-13.159-8.024-45.414,33.982-47.904c0,0,1.037-24.461,26.268-30.302c30.934-7.162,38.581,11.429,52.139,14.768
					c15.143,3.728,47.711-10.194,51.95,24.865c0,0,21.622,0.508,31.559,16.246c9.258,14.663,3.824,33.399-2.401,40.286
					c0,0,17.334,5.911,21.315,22.336c2.669,11.014-1.625,25.244-12.594,32.148c-6.979,4.392-13.607,4.799-13.607,4.799
					c-7.082,1.154-7.531,20.115-13.77,23.778c-10.015,5.88-20.894,10.028-31.955,13.31L456.54,988.824z"/>
				<path style="fill:#F37A50;" d="M571.192,916.001c3.439,51.437-24.792,95.206-63.056,97.764
					c-38.264,2.559-72.07-37.064-75.508-88.5c-3.438-51.436,27.158-84.659,65.422-87.217
					C536.313,835.49,567.754,864.565,571.192,916.001z"/>
				<path d="M477.408,948.417c-4.067,0.272-7.584-2.804-7.856-6.871c-0.272-4.066,2.804-7.584,6.871-7.855
					c4.066-0.273,7.583,2.805,7.855,6.871C484.55,944.628,481.474,948.146,477.408,948.417z"/>
				<path d="M532.114,946.814c-4.066,0.271-7.583-2.804-7.855-6.872c-0.271-4.066,2.804-7.583,6.871-7.854
					c4.066-0.273,7.583,2.805,7.855,6.871C539.256,943.025,536.18,946.542,532.114,946.814z"/>
				<path style="fill:#DE623C;" d="M511.767,947.352c7.695,8.903,9.938,12.34,12.99,15.423c-4.446,7.703-18.427,8.729-21.897,6.892
					c10.118-2.311,12.831-8.055,12.831-8.055L511.767,947.352z"/>
				<path style="fill:#F37A50;" d="M444.992,933.722c7.147,10.667,6.533,23.608-1.373,28.906
					c-7.906,5.297-20.108,0.944-27.256-9.723c-7.147-10.667-6.533-23.608,1.372-28.905
					C425.642,918.703,437.845,923.056,444.992,933.722z"/>
				<g>
					<path style="fill:#DE623C;" d="M437.943,953.946c-0.306,0.021-0.621-0.019-0.928-0.125c-1.233-0.426-1.888-1.772-1.461-3.005
						c1.417-4.098,1.24-7.307-0.524-9.538c-2.723-3.444-8.658-4.167-12.904-3.741c-1.297,0.133-2.456-0.816-2.586-2.115
						c-0.13-1.298,0.816-2.456,2.115-2.587c5.698-0.572,13.179,0.576,17.082,5.512c1.945,2.459,3.746,6.887,1.283,14.012
						C439.7,953.285,438.863,953.884,437.943,953.946z"/>
				</g>
				<path style="fill:#2C2858;" d="M408.325,888.634l81.864-68.64l92.695,44.991L572.849,931.4
					c-2.934-30.534-21.478-20.301-31.333-29.051c-9.991-8.87-14.539-22.94-37.377-9.977c0,0-18.992-12.528-28.246,5.838
					c-7.156,14.203-17.307,11.705-27.351,12.641c-11.847,1.104-8.794,12.576-16.051,12.346L408.325,888.634z"/>
				<g>
					<path style="fill:#2C2858;" d="M542.42,928.501c-0.759,0.001-1.521-0.263-2.136-0.802c-6.284-5.499-15.402-1.807-15.494-1.769
						c-1.651,0.685-3.551-0.091-4.243-1.741c-0.692-1.646,0.074-3.543,1.719-4.24c0.523-0.222,12.916-5.339,22.292,2.865
						c1.349,1.18,1.486,3.23,0.305,4.58C544.222,928.126,543.323,928.501,542.42,928.501z"/>
				</g>
				<g>
					<path style="fill:#2C2858;" d="M463.227,932.479c-0.767,0-1.537-0.271-2.155-0.82c-1.34-1.191-1.461-3.242-0.27-4.582
						c9.398-10.573,22.692-5.043,23.254-4.804c1.647,0.707,2.411,2.615,1.705,4.263c-0.705,1.644-2.606,2.406-4.25,1.709
						c-0.423-0.177-9.61-3.884-15.856,3.145C465.013,932.11,464.122,932.479,463.227,932.479z"/>
				</g>
				<g>
					<path style="fill:#DE623C;" d="M509.572,990.053c-11.692,0-21.232-6.475-21.377-6.576c-1.228-0.851-1.533-2.537-0.681-3.763
						c0.85-1.227,2.535-1.532,3.762-0.683c0.8,0.55,19.053,12.822,34.114-0.467c1.12-0.987,2.829-0.881,3.817,0.239
						c0.989,1.12,0.882,2.829-0.238,3.818C522.622,988.219,515.792,990.053,509.572,990.053z"/>
				</g>
			</g>
			<path style="fill:#DE623C;" d="M430.66,1204.882c19.127-14.475,43.749-36.322,50.661-46.526c0,0-22.136-20.89-28.221-20.28
				c-20.992,18.254-137.653,41.349-96.746,92.486C368.003,1245.123,402.7,1226.04,430.66,1204.882z"/>
			<path style="fill:#DE623C;" d="M596.907,1192.729c-6.691-21.003-2.856-35.346-9.769-45.551c0,0,19.273-25.864,22.279-19.851
				c11.476,23.261,93.82,74.105,56.664,104.482C651.643,1243.612,607.64,1226.11,596.907,1192.729z"/>
			<g>
				<path style="fill:#FFFFFF;" d="M466.859,1068.827l10.376-2.462c38.262,12.174,85.087,3.415,98.14,31.382l0.001,16.524
					L466.859,1068.827z"/>
				<polygon style="fill:#3F964F;" points="459.777,1191.814 552.169,1220.644 564.419,1100.901 463.557,1066.365 				"/>
				<path style="fill:#E9EDF2;" d="M670.303,1068.827l-10.376-2.462c-38.263,12.174-71.408,3.415-84.461,31.382l-0.002,16.524
					L670.303,1068.827z"/>
				<polygon style="fill:#3F964F;" points="650.106,1191.814 574.173,1220.644 586.422,1100.901 673.606,1066.365 				"/>
				<path style="fill:#0E6A41;" d="M574.937,1221.986c-7.529,4.584-15.404,4.584-23.62,0l12.249-123.155
					c7.867,3.462,15.741,3.463,23.62,0L574.937,1221.986z"/>
			</g>
			<g>
				<path style="fill:#F37A50;" d="M474.998,1166.82c3.052-2.624,9.03-11.825-0.405-11.383c12.252-3.381,15.218-13.128-0.228-14.222
					c11.157-0.92,17.35-13.09-1.362-15.214c10.59-1.519,14.743-11.829,4.259-13.79c-11.109-2.077-27.745-5.867-34.038-0.039
					c-4.975,4.609-1.939,10.198,3.042,12.845c-9.774,3.927-8.643,16.322,3.429,17.894c-4.648,2.551-6.389,8.362-3.91,13.051
					c2.625,5.172,8.893,7.305,14.124,4.806c-3.806,2.934-5.239,8.9-1.115,10.879C464.05,1174.2,471.851,1169.802,474.998,1166.82z"
					/>
			</g>
			<g>
				<path style="fill:#F37A50;" d="M648.326,1146.543c-3.051-2.623-9.029-11.825,0.405-11.384
					c-12.252-3.382-15.218-13.127,0.229-14.222c-11.157-0.918-17.35-13.089,1.361-15.213c-10.59-1.52-14.742-11.829-4.259-13.79
					c11.109-2.079,27.744-5.868,34.037-0.039c4.975,4.608,1.94,10.197-3.042,12.845c9.774,3.927,8.644,16.319-3.429,17.894
					c4.647,2.55,6.389,8.361,3.91,13.051c-2.625,5.171-8.893,7.306-14.124,4.806c3.806,2.934,5.24,8.899,1.116,10.881
					C659.274,1153.922,651.474,1149.523,648.326,1146.543z"/>
			</g>
		</g>
	</g>
	<g>
		<g>
			<path style="fill:#4364CC;" d="M2700.197,1635.959l40.779,130.025c1.088,3.469,2.902,5.548,4.844,5.548l0,0
				c3.594,0,6.338-6.938,5.775-14.607l-8.879-120.967H2700.197z"/>
			<path style="fill:#4364CC;" d="M2324.089,1635.959l-40.779,130.025c-1.088,3.469-2.902,5.548-4.842,5.548l0,0
				c-3.596,0-6.34-6.938-5.777-14.607l8.879-120.967H2324.089z"/>
			<path style="fill:#4364CC;" d="M2130.113,1635.959l-40.779,130.025c-1.088,3.469-2.902,5.548-4.842,5.548l0,0
				c-3.596,0-6.34-6.938-5.777-14.607l8.879-120.967H2130.113z"/>
			<path style="fill:#768FDB;" d="M2363.816,1640.74h366.107c25.23,0,45.682-20.451,45.682-45.681v-232.224
				c0-19.617-15.902-35.521-35.52-35.521h-376.27V1640.74z"/>
			<path style="fill:#4364CC;" d="M2272.618,1640.74h366.106c25.23,0,45.682-20.451,45.682-45.681v-232.224
				c0-19.617-15.902-35.521-35.52-35.521h-376.269V1640.74z"/>
			<path style="fill:#768FDB;" d="M2192.948,1406.583h344.488v-162.261c0-19.407-15.732-35.141-35.141-35.141h-309.348V1406.583z"/>
			<path style="fill:#95ADF5;" d="M2160.263,1401.218h483.3c23.004,0,41.65,18.647,41.65,41.649v48.034h-524.95V1401.218z"/>
			<rect x="2160.263" y="1480.48" style="fill:#768FDB;" width="524.95" height="160.49"/>
			<path style="fill:#4364CC;" d="M2087.334,1406.583h105.614v-197.401h-71.521c-18.828,0-34.094,15.265-34.094,34.094V1406.583z"/>
		</g>
		<g>
			<path d="M2581.37,981.791c11.685-40.315,7.51-79.003-21.238-104.345c-29.14-25.687-74.48-16.156-74.48-16.156l0,0
				c-0.004-0.002-32.449-19.921-71.676,8.373c-39.228,28.296-21.702,64.222-40.127,87.016c-10.91,13.498-50.751,8.317-51.072,59.747
				c-0.093,14.833,14.975,28.02,29.254,32.04c25.085,7.062,50.858,2.246,59.088,14.266c27.115,39.607,104.905,43.843,121.725,16.431
				c5.215-8.498,69.188,23.642,75.692-40.396C2611.832,1006.318,2570.93,1017.813,2581.37,981.791z"/>
			<path style="fill:#2C2858;" d="M2569.581,1227.142c-9.813-29.905-48.257-132.791-78.97-142.053
				c-37.005-11.158-35.303,23.333-30.901,43.475c4.402,20.145,57.536,122.874,57.536,122.874L2569.581,1227.142z"/>
			<path style="fill:#F37A50;" d="M2765.621,1584.453l21.396,29.926c0,0,19.11,24.355,41.89,12.92
				c22.781-11.436,12.684-48.023,12.684-48.023l-26.174-34.459L2765.621,1584.453z"/>
			<g>
				<g>
					<g>
						<path style="fill:#2C2858;" d="M2840.697,1575.313c0,0,23.004-0.217,47.992-8.73c13.98-4.763,50.526-18.622,58.732,6.383
							c1.224,3.732,0.652,8.958-6.207,16.905c-10.13,11.738-25.595,24.658-61.859,35.892
							c-43.506,13.477-47.015,21.182-63.633,25.289c-17.224,4.258-22.923-19.766-29.582-39.285l0,0
							c3.037,4.119,12.092,14.264,44.451,8.346C2840.254,1618.348,2812.682,1587.985,2840.697,1575.313z"/>
					</g>
				</g>
			</g>
			<path style="fill:#F37A50;" d="M2605.711,1688.266v20.297c0,0,1.381,30.928,26.563,34.875
				c25.182,3.945,38.248-31.692,38.248-31.692l-0.924-31.968L2605.711,1688.266z"/>
			<path style="fill:#F37A50;" d="M2479.604,1025.605c0,0-4.495,41.159-5.929,56.342l-55.418,1.632
				c16.932-26.215,9.296-100.945,9.296-100.945L2479.604,1025.605z"/>
			<g>
				<path style="fill:#F37A50;" d="M2423.264,963.744c-9.347,48.598,14.019,93.945,52.188,101.286
					c38.17,7.342,76.689-26.105,86.036-74.704c9.347-48.599-14.019-93.948-52.188-101.288
					C2471.13,881.698,2432.61,915.145,2423.264,963.744z"/>
				<path d="M2540.137,994.541c0.139,3.73,3.274,6.643,7.006,6.504c3.73-0.139,6.643-3.275,6.504-7.006
					c-0.138-3.73-3.274-6.643-7.005-6.504C2542.91,987.673,2539.998,990.81,2540.137,994.541z"/>
				<path d="M2486.366,984.581c0.15,4.039,3.545,7.19,7.584,7.041c4.039-0.149,7.191-3.545,7.041-7.583
					c-0.15-4.039-3.545-7.192-7.584-7.042C2489.368,977.147,2486.216,980.542,2486.366,984.581z"/>
				<g>
					<path d="M2481.495,975.725c0.557-0.021,1.111-0.224,1.565-0.617c6.603-5.695,16.266-3.014,16.362-2.987
						c1.348,0.387,2.759-0.389,3.148-1.737c0.391-1.347-0.38-2.754-1.726-3.148c-0.502-0.147-12.384-3.508-21.108,4.02
						c-1.064,0.917-1.184,2.524-0.266,3.588C2479.997,975.453,2480.748,975.752,2481.495,975.725z"/>
				</g>
				<g>
					<path d="M2557.607,991.694c0.272-0.01,0.548-0.065,0.817-0.167c1.313-0.504,1.968-1.975,1.464-3.287
						c-3.909-10.188-13.937-11.235-14.361-11.275c-1.396-0.13-2.64,0.899-2.77,2.298c-0.13,1.394,0.893,2.632,2.286,2.768
						c0.328,0.035,7.344,0.866,10.094,8.032C2555.538,991.105,2556.55,991.732,2557.607,991.694z"/>
				</g>
				<path style="fill:#DE623C;" d="M2530.115,1006.141c1.806,5.005,3.147,9.928,5.454,13.421c0.776,1.178,0.471,2.781-0.668,3.615
					c-4.697,3.441-14.028,3.802-19.591,3.674c-0.813-0.019-0.967-1.163-0.189-1.4c6.577-1.997,9.977-4.123,11.582-5.407
					c0.798-0.641,1.228-1.621,1.185-2.645c-0.103-2.342-0.265-7.102-0.107-10.91
					C2527.835,1005.173,2529.669,1004.901,2530.115,1006.141z"/>
				<path style="fill:#F37A50;" d="M2439.708,971.523c5.422,10.297,2.985,22.242-5.442,26.678
					c-8.427,4.437-19.653-0.314-25.075-10.612c-5.421-10.298-2.984-22.243,5.443-26.679
					C2423.062,956.474,2434.288,961.226,2439.708,971.523z"/>
				<g>
					<path style="fill:#DE623C;" d="M2424.897,991.565c0.383-0.013,0.767-0.114,1.126-0.311c5.147-2.819,7.624-7.486,6.624-12.483
						c-1.025-5.115-5.373-9.211-10.338-9.738c-1.397-0.147-2.65,0.863-2.799,2.261c-0.148,1.397,0.864,2.651,2.262,2.799
						c2.72,0.29,5.305,2.783,5.885,5.678c0.557,2.781-0.892,5.274-4.078,7.02c-1.233,0.676-1.686,2.222-1.01,3.455
						C2423.048,991.119,2423.966,991.601,2424.897,991.565z"/>
				</g>
				<g>
					<path style="fill:#DE623C;" d="M2492.36,1045.717c-16.76-7.585-19.049-21.162-19.158-21.882
						c-0.232-1.534,0.822-2.967,2.355-3.198c1.529-0.232,2.957,0.813,3.197,2.339c0.127,0.768,3.31,18.07,30.526,21.537
						c1.539,0.195,2.628,1.602,2.432,3.142c-0.196,1.538-1.603,2.627-3.142,2.431
						C2502.047,1049.256,2496.715,1047.688,2492.36,1045.717z"/>
				</g>
			</g>
			<path d="M2424.169,959.481c43.596,13.1,120.063-2.747,134.509-22.104c3.733-29.417-32.755-61.564-62.088-60.43
				C2467.257,878.081,2421.462,919.113,2424.169,959.481z"/>
			<path style="fill:#3F964F;" d="M2436.651,1419.493l228.923-9.781c0,0,11.293-57.135,2.797-79.787
				c-8.494-22.653-218.824-17.983-218.824-17.983L2436.651,1419.493z"/>
			<path style="fill:#0E6A41;" d="M2369.323,1272.791c-6.203,14.335-30.379,57.001-28.045,91.589
				c2.41,35.699,27.598,66.779,70.227,66.101c0,0,80.346-45.671,62.955-139.224
				C2474.46,1291.256,2432.397,1274.826,2369.323,1272.791z"/>
			<path style="fill:#0E6A41;" d="M2405.153,1438.632l201.647,19.021c0,0,69.174-29.189,68.779-53.979
				c-0.395-24.79-203.573-92.623-203.573-92.623C2352.843,1276.297,2313.118,1424.198,2405.153,1438.632z"/>
			<path style="fill:#0E6A41;" d="M2675.58,1403.673l-4.043,284.435c0,0-50.338,21.215-67.979,0.164
				c-8.325-96.538-47.966-182.058-3.711-240.909C2659.121,1368.541,2675.58,1403.673,2675.58,1403.673z"/>
			<path style="fill:#3F964F;" d="M2667.887,1329.26l167.806,230.447c0,0-37.453,50.055-63.605,44.195
				c-45.118-57.093-136.421-124.038-137.003-195.888C2634.305,1311.784,2667.887,1329.26,2667.887,1329.26z"/>
			<path style="fill:#37326E;" d="M2425.464,1064.245l52.064,10.096c18.717,35.067,36.393,68.889,36.441,89.994
				c0.063,27.786-38.063,142.873-38.063,142.873c-50.168,6.609-91.029,0.266-122.009-19.836
				c24.192-68.424-17.116-152.901,27.701-199.066C2392.784,1076.785,2410.68,1071.677,2425.464,1064.245z"/>
			<g>
				<g>
					<g>
						<path style="fill:#2C2858;" d="M2672.1,1708.004c0,0,18.84,13.203,44.119,20.809c14.143,4.256,51.932,14.238,44.064,39.351
							c-1.174,3.747-4.68,7.666-14.881,10.143c-15.068,3.658-35.162,5.174-71.197-6.779c-43.229-14.34-50.564-10.112-66.471-16.436
							c-16.487-6.553-7.151-29.412-1.217-49.164l0,0c0.076,5.118,1.541,18.637,31.307,32.644
							C2646.709,1742.754,2641.939,1702.019,2672.1,1708.004z"/>
					</g>
				</g>
			</g>
			<path style="fill:#2C2858;" d="M2360.707,1111.725c-23.587,40-59.046,167.631-52.676,183.17l58.005-10.487
				c0,0,54.314-121.899,63.829-146.05C2446.438,1096.58,2399.096,1046.347,2360.707,1111.725z"/>
			<g>
				<polygon style="fill:#8A284C;" points="2739.492,1245.714 2761.528,1182.53 2645.404,1219.73 2720.643,1249.841 				"/>
				<polygon style="fill:#F3DAD1;" points="2736.217,1239.855 2756.266,1184.13 2751.111,1179.105 2649.406,1212.634 				"/>
				<path style="fill:#FFFFFF;" d="M2737.666,1242.384c-3.301-7.278-16.854-18.449-36.451-19.252
					c-19.596-0.803-84.283-22.888-88.344-26.131c-6.895,4.47-132.311,84.545-132.311,84.545l3.505,9.106L2737.666,1242.384z"/>
				<polygon style="fill:#8A284C;" points="2477.364,1291.491 2479.515,1296.948 2595.942,1324.188 2739.492,1245.714 
					2737.344,1240.256 2618.766,1207.558 				"/>
				<polygon style="fill:#E62552;" points="2479.515,1296.948 2598.091,1329.646 2739.492,1245.714 2620.916,1213.016 				"/>
			</g>
			<g>
				<g>
					<g>
						<g>
							<path style="fill:#DE623C;" d="M2680.428,1184.521c-10.498,2.818-28.848,17.533-34.225,24.741l7.182,2.276l8.725-3.314
								c9.555-0.46,15.254,6.916,34.238,1.943c9.508-2.49,15.35-2.925,15.555-4.153c0.203-1.228-0.51-8.622-11.916-5.772
								c-7.783,1.946-11.922,3.198-8.561-1.64l32.047-10.49C2719.346,1180.641,2695.309,1180.527,2680.428,1184.521z"/>
						</g>
					</g>
				</g>
			</g>
			<g>
				<g>
					<g>
						<g>
							<path style="fill:#F37A50;" d="M2540.787,1278.943c-8.558,1.53-33.771,3.935-52.022,8.267l6.2-25.279
								c13.587,0.161,27.042-24.349,53.718-29.458c9.098-1.743,13.218-3.316,14.076-2.175c0.859,1.142,4.057,9.04-9.057,12.19
								c-16.457,3.949-3.82,16,28.559-0.65c8.106-4.168,24.544-1.9,19.495,4.968
								C2596.193,1254.375,2579.728,1271.978,2540.787,1278.943z"/>
						</g>
					</g>
				</g>
			</g>
			<path style="fill:#2C2858;" d="M2324.532,1237.354c-14.499,6.137-19.764,53.51-15.352,56.805
				c87.189,33.254,190.323-7.626,190.323-7.626l-1.392-26.53C2498.112,1260.002,2409.859,1254.892,2324.532,1237.354z"/>
		</g>
		<path style="fill:#768FDB;" d="M2178.533,1640.74h218.545c25.229,0,45.683-20.451,45.683-45.681v-232.224
			c0-19.617-15.903-35.521-35.521-35.521h-228.706V1640.74z"/>
		<path style="fill:#4364CC;" d="M2087.334,1640.74h218.546c25.229,0,45.682-20.451,45.682-45.681v-232.224
			c0-19.617-15.903-35.521-35.521-35.521h-228.707V1640.74z"/>
	</g>
	<g>
		<g>
			<path style="fill:#A11A3D;" d="M896.19,1611.736l-46.887,217.768c-1.251,5.809-3.337,9.289-5.568,9.289l0,0
				c-4.133,0-7.288-11.619-6.641-24.461l10.208-202.596H896.19z"/>
			<path style="fill:#A11A3D;" d="M2090.158,1611.736l46.886,217.768c1.252,5.809,3.338,9.289,5.568,9.289l0,0
				c4.133,0,7.288-11.619,6.641-24.461l-10.208-202.596H2090.158z"/>
			<path style="fill:#A11A3D;" d="M1726.658,1611.736l46.887,217.768c1.252,5.809,3.338,9.289,5.568,9.289l0,0
				c4.133,0,7.288-11.619,6.641-24.461l-10.208-202.596H1726.658z"/>
			<path style="fill:#C4204A;" d="M1385.563,1650.979H885.408c-29.008,0-52.524-23.516-52.524-52.524v-267.002
				c0-22.558,18.285-40.842,40.84-40.842h511.839V1650.979z"/>
			<path style="fill:#A11A3D;" d="M1490.422,1650.979H990.266c-29.008,0-52.523-23.516-52.523-52.524v-267.002
				c0-22.558,18.285-40.842,40.84-40.842h511.839V1650.979z"/>
			<path style="fill:#C4204A;" d="M2080.182,1381.75h-894.24v-187.766c0-21.649,17.55-39.2,39.199-39.2h855.041V1381.75z"/>
			<path style="fill:#E8587D;" d="M2141.005,1375.581H984.703c-26.447,0-47.888,21.44-47.888,47.89v55.228h1204.189V1375.581z"/>
			
				<rect x="936.815" y="1466.717" transform="matrix(-1 -1.224647e-16 1.224647e-16 -1 3077.8203 3117.9609)" style="fill:#C4204A;" width="1204.189" height="184.527"/>
			<path style="fill:#A11A3D;" d="M2140.897,1381.75h-121.431v-226.966h82.232c21.648,0,39.198,17.551,39.198,39.2V1381.75z"/>
		</g>
		<g>
			<path style="fill:#DE623C;" d="M1177.737,1070.179l-59.135,87.867l55.767,28.795c0,0,35.534-64.41,40.994-84.463
				C1220.823,1082.326,1177.737,1070.179,1177.737,1070.179z"/>
			<path style="fill:#F37A50;" d="M935.278,1782.476l-38.95,12.684l-18.539-34.214c1.601-1.356,2.631-24.987,3.03-42.951
				l64.541,4.552C943.427,1740.775,939.716,1764.689,935.278,1782.476z"/>
			<g>
				<g>
					<path style="fill:#2C2858;" d="M866.748,1807.947c0,0-15.238-22.12-32.696-22.412c0,0-32.635,4.064-43.206,18.608
						c-3.32,4.568-1.317,13.709,0.505,19.525c1.138,3.633,4.534,7.43,14.419,9.829c14.603,3.545,34.076,5.014,68.996-6.568
						c41.893-13.896,49-9.801,64.415-15.928c15.979-6.351,9.398-25.959,3.647-45.102
						C942.828,1765.9,932.533,1790.483,866.748,1807.947z"/>
				</g>
				<g>
					<g>
						<path style="fill:#4364CC;" d="M876.487,1757.566c0,0-18.257,12.795-42.755,20.166c-13.706,4.125-50.326,13.797-42.701,38.135
							c1.138,3.631,4.534,7.429,14.42,9.828c14.602,3.545,34.075,5.014,68.995-6.568c41.893-13.897,49-9.801,64.416-15.928
							c15.978-6.352,6.93-28.502,1.179-47.643l0,0c-0.073,4.959-1.493,18.06-30.337,31.633
							C901.091,1791.242,905.714,1751.767,876.487,1757.566z"/>
					</g>
				</g>
			</g>
			<path style="fill:#F37A50;" d="M1089.845,1777.934l-37.961,15.392l-20.9-32.822c1.501-1.465,0.866-25.111,0-43.059h64.701
				C1095.039,1735.764,1093.021,1759.88,1089.845,1777.934z"/>
			<path style="fill:#4364CC;" d="M1125.982,1340.896c-87.421,22.074-209.286,87.789-220.814,101.658
				c-23.812,28.646-25.727,122.13-26.79,287.947h70.872c19.985-130.814,45.612-188.813,46.509-241.458
				c0,0,68.186,0.165,167.684-46.064c49.048-22.788,99.999-48.959,81.863-93.432
				C1230.857,1314.113,1209.338,1319.854,1125.982,1340.896z"/>
			<path style="fill:#768FDB;" d="M1222.781,1332.864c-73.022,12.505-165.479,103.186-177.007,117.056
				c-23.812,28.645-13.726,120.851-14.79,286.669h66.905c6.775-86.323,40.194-184.74,35.898-247.501
				c0,0,71.863-10.659,171.36-56.887c49.048-22.788,98.85-20.524,86.964-77.498
				C1384.297,1317.242,1307.519,1318.355,1222.781,1332.864z"/>
			<path style="fill:#2C2858;" d="M1213.276,1053.515c-35.802-4.969-92.727-20.345-68.715-75.505
				c24.013-55.16,27.564-34.05,2.965-89.688c-24.599-55.638,7.124-110.2,49.049-106.95c41.924,3.25,58.752,33.063,105.43,14.75
				c46.678-18.314,96.464,18.441,86.545,61.534c-9.918,43.094-13.704,63.635,7.919,81.759
				c21.624,18.124,103.309,25.302,82.303,84.106c-21.006,58.81-36.35,58.717-19.594,83.043
				c16.756,24.326-2.466,60.119-47.832,65.375c-45.366,5.257-89.194-3.051-116.011-49.277
				C1268.521,1076.438,1213.276,1053.515,1213.276,1053.515z"/>
			<path style="fill:#3F964F;" d="M1154.756,1091.92c20.829-22.498,51.844-63.25,87.363-64.097
				c42.796-1.019,33.87,35.477,23.239,55.688c-10.631,20.211-47.36,70.028-47.36,70.028L1154.756,1091.92z"/>
			<path style="fill:#0E6A41;" d="M1387.68,1344.483c-16.339-84.291-12.342-84.105-19.129-123.773
				c-16.772-98.038,69.574-176.744-56.644-215.594l-55.899,12.38c-53.707,26.521-64.208,74.198-69.501,106.743
				c-10.072,61.943-1.27,154.407-1.27,154.407l-21.127,52.807c0,0,14.663,14.706,84.145,27.831
				C1317.738,1372.409,1387.68,1344.483,1387.68,1344.483z"/>
			<path style="fill:#F37A50;" d="M1400.482,1094.101c13.409,49.654,10.699,181.392-0.677,196.107l-58.845-28.277
				c0,0-21.253-142.137-24.302-170.722C1311.263,1041.723,1378.744,1012.995,1400.482,1094.101z"/>
			<path style="fill:#3F964F;" d="M1319.561,1170.225c-5.349-37.736-16.431-107.68,15.239-131.317
				c31.67-23.64,61.986,5.167,68.453,29.731c6.467,24.563,13.777,93.018,13.777,93.018L1319.561,1170.225z"/>
			<g>
				<polygon style="fill:#8A284C;" points="955.25,1109.305 950.326,1035.355 1063.361,1109.265 974.164,1119.26 				"/>
				<polygon style="fill:#F3DAD1;" points="960.474,1104.013 955.475,1038.612 962.456,1034.765 1061.176,1100.508 				"/>
				<path style="fill:#FFFFFF;" d="M958.183,1106.287c5.667-6.801,23.426-14.737,44.586-9.825c21.16,4.913,96.73,0.379,102.02-1.888
					c6.045,6.801,116.378,129.224,116.378,129.224l-6.424,8.692L958.183,1106.287z"/>
				<polygon style="fill:#8A284C;" points="1221.651,1235.357 1217.749,1240.552 1085.417,1235.357 955.25,1109.305 
					959.153,1104.107 1095.386,1104.107 				"/>
				<polygon style="fill:#E62552;" points="1217.749,1240.552 1081.516,1240.552 955.25,1109.305 1091.484,1109.305 				"/>
			</g>
			<path style="fill:#F37A50;" d="M1316.812,943.629l-59.152,51.588c0,0,2.289,22.533,1.528,31.333
				c-1.57,18.159,27.654,21.755,42.388,7.472c14.732-14.283,15.996-29.398,15.996-29.398L1316.812,943.629z"/>
			<g>
				<g>
					<g>
						<g>
							<path style="fill:#DE623C;" d="M1036.332,1061.357c10.379,6.101,25.64,27.215,29.258,36.493l-8.337,0.316l-8.34-6.107
								c-10.067-3.303-18.323,2.892-37.128-8.004c-9.42-5.459-15.53-7.643-15.385-9.016c0.145-1.371,3.082-9.059,14.421-2.652
								c7.738,4.369,11.789,6.924,9.624,0.768l-31.13-20.636C995.92,1045.756,1021.621,1052.712,1036.332,1061.357z"/>
						</g>
					</g>
				</g>
			</g>
			<path style="fill:#F37A50;" d="M1399.128,1223.911c13.674,10.819,5.348,62.953-0.334,65.17
				c-102.884,9.837-197.862-64.373-197.862-64.373l1.457-27.722C1202.389,1196.986,1302.859,1217.517,1399.128,1223.911z"/>
			<g>
				<g>
					<path style="fill:#2C2858;" d="M1023.277,1808.164c0,0-16.756-20.992-34.192-20.056c0,0-32.267,6.35-41.79,21.603
						c-2.991,4.79-0.35,13.768,1.878,19.441c1.391,3.543,5.046,7.092,15.076,8.79c14.815,2.509,34.343,2.604,68.362-11.407
						c40.811-16.809,48.189-13.223,63.135-20.42c15.492-7.459,7.548-26.557,0.464-45.246
						C1096.21,1760.869,1087.67,1786.115,1023.277,1808.164z"/>
				</g>
				<g>
					<g>
						<path style="fill:#4364CC;" d="M1029.446,1757.223c0,0-17.311,14.047-41.23,23.125c-13.382,5.078-49.23,17.304-39.913,41.045
							c1.391,3.542,5.046,7.091,15.077,8.789c14.814,2.508,34.342,2.604,68.361-11.408c40.811-16.809,48.189-13.223,63.136-20.418
							c15.491-7.461,4.907-28.92-2.177-47.609l0,0c0.276,4.952-0.219,18.12-28.036,33.689
							C1056.359,1789.084,1058.193,1749.382,1029.446,1757.223z"/>
					</g>
				</g>
			</g>
			<g>
				<path style="fill:#F37A50;" d="M1320.519,914.736c6.076,45.967-18.267,87.098-54.368,91.87
					c-36.103,4.771-70.295-28.624-76.37-74.59c-6.075-45.967,18.267-87.098,54.369-91.87
					C1280.252,835.375,1314.444,868.769,1320.519,914.736z"/>
				<path style="fill:#2C2858;" d="M1179.83,917.39c16.129-4.647,48.917-20.342,55.641-39.705
					c20.193,26.329,68.429,40.253,104.442,41.646c-10.456-30.955-32.196-86.929-95.765-89.257
					C1194.208,828.247,1179.83,917.39,1179.83,917.39z"/>
				<path d="M1209.132,939.601c-0.334,3.482-3.428,6.033-6.909,5.699c-3.482-0.334-6.033-3.428-5.699-6.909
					c0.334-3.482,3.428-6.034,6.909-5.7C1206.915,933.026,1209.466,936.119,1209.132,939.601z"/>
				<path d="M1260.356,930.762c-0.362,3.769-3.71,6.531-7.48,6.17c-3.768-0.362-6.531-3.711-6.169-7.48
					c0.362-3.769,3.71-6.531,7.48-6.169C1257.956,923.645,1260.719,926.994,1260.356,930.762z"/>
				<g>
					<path style="fill:#2C2858;" d="M1265.399,922.747c-0.521-0.05-1.027-0.271-1.432-0.663c-5.862-5.689-15.048-3.712-15.14-3.691
						c-1.281,0.288-2.559-0.517-2.85-1.798c-0.291-1.281,0.507-2.556,1.787-2.85c0.478-0.11,11.775-2.602,19.522,4.918
						c0.945,0.917,0.968,2.426,0.051,3.372C1266.814,922.574,1266.095,922.813,1265.399,922.747z"/>
				</g>
				<g>
					<path style="fill:#2C2858;" d="M1193.335,933.506c-0.254-0.024-0.509-0.09-0.755-0.202c-1.199-0.543-1.732-1.956-1.189-3.156
						c4.215-9.314,13.65-9.743,14.051-9.756c1.313-0.044,2.419,0.984,2.464,2.301c0.045,1.312-0.979,2.412-2.29,2.464
						c-0.31,0.014-6.917,0.406-9.882,6.957C1195.303,933.068,1194.322,933.601,1193.335,933.506z"/>
				</g>
				<path style="fill:#DE623C;" d="M1218.256,948.526c-1.963,4.583-3.489,9.114-5.837,12.253c-0.792,1.06-0.593,2.575,0.426,3.418
					c4.205,3.477,12.911,4.326,18.121,4.511c0.761,0.027,0.969-1.035,0.254-1.299c-6.042-2.229-9.104-4.403-10.535-5.694
					c-0.711-0.642-1.06-1.582-0.962-2.535c0.224-2.187,0.636-6.63,0.698-10.202C1220.442,947.747,1218.742,947.393,1218.256,948.526
					z"/>
				<path style="fill:#F37A50;" d="M1304.711,921.11c-5.635,9.334-4.012,20.639,3.626,25.251c7.638,4.612,18.399,0.784,24.035-8.55
					c5.636-9.334,4.012-20.639-3.626-25.251C1321.107,907.948,1310.347,911.776,1304.711,921.11z"/>
				<g>
					<path style="fill:#DE623C;" d="M1317.464,940.668c-0.357-0.034-0.712-0.149-1.036-0.352c-4.66-2.92-6.72-7.421-5.51-12.039
						c1.239-4.729,5.53-8.321,10.202-8.542c1.315-0.061,2.432,0.953,2.494,2.268c0.062,1.316-0.954,2.432-2.269,2.494
						c-2.56,0.121-5.114,2.312-5.815,4.987c-0.674,2.571,0.544,4.982,3.429,6.791c1.116,0.699,1.454,2.17,0.754,3.286
						C1319.218,940.352,1318.334,940.752,1317.464,940.668z"/>
				</g>
				<g>
					<path style="fill:#DE623C;" d="M1243.155,986.902c-8.572,1.366-16.56-1.216-16.963-1.349c-1.515-0.5-2.337-2.135-1.836-3.649
						c0.5-1.514,2.132-2.335,3.644-1.837l0,0c0.101,0.033,10.122,3.24,18.446,0.019c8.439-3.265,12.507-8.677,12.547-8.731
						c0.945-1.279,2.75-1.56,4.033-0.62c1.283,0.939,1.57,2.734,0.637,4.022c-0.2,0.275-5.017,6.803-15.132,10.717
						C1246.757,986.16,1244.942,986.617,1243.155,986.902z"/>
				</g>
			</g>
			<g>
				<g>
					<g>
						<g>
							<path style="fill:#F37A50;" d="M1155.985,1204.646c8.687,4.155,34.899,14.146,53.11,24.146l0.823-28.817
								c-14.555-3.83-21.704-33.96-48.682-47.269c-9.201-4.541-13.136-7.434-14.389-6.466c-1.253,0.966-6.992,8.457,6.082,15.681
								c16.408,9.063-0.632,18.209-30.301-9.102c-7.429-6.839-25.646-9.257-22.278-0.437
								C1104.062,1162.1,1116.458,1185.743,1155.985,1204.646z"/>
						</g>
					</g>
				</g>
			</g>
		</g>
		<g id="c_1_">
			<path style="fill:#E86686;" d="M1601.373,1016.267c-44.086,13.392-61.642,107.877-80.412,205.027
				c-10.57,20.763-24.565,51.142-47.111,96.121l44.542,22.635c0,0,39.94-40.616,65.609-91.199
				c7.891-15.548,10.465-55.798,14.584-69.971C1600.394,1134.455,1601.373,1016.267,1601.373,1016.267z"/>
			<path style="fill:#F37A50;" d="M1368.853,1782.666l-38.95,12.684l-18.538-34.213c1.601-1.355,2.631-24.988,3.029-42.951
				l64.542,4.553C1377.001,1740.965,1373.291,1764.881,1368.853,1782.666z"/>
			<g>
				<g>
					<path style="fill:#201D40;" d="M1300.323,1808.139c0,0-15.237-22.121-32.697-22.412c0,0-32.634,4.065-43.206,18.607
						c-3.321,4.568-1.317,13.709,0.505,19.525c1.138,3.633,4.533,7.43,14.42,9.83c14.603,3.544,34.074,5.014,68.995-6.57
						c41.892-13.895,49-9.799,64.416-15.927c15.978-6.35,9.398-25.96,3.646-45.1
						C1376.403,1766.092,1366.108,1790.674,1300.323,1808.139z"/>
				</g>
				<g>
					<g>
						<path style="fill:#2C2858;" d="M1310.061,1757.758c0,0-18.256,12.793-42.754,20.166
							c-13.705,4.123-50.326,13.797-42.701,38.133c1.138,3.633,4.534,7.43,14.42,9.83c14.603,3.544,34.075,5.014,68.995-6.57
							c41.892-13.895,49-9.799,64.415-15.927c15.979-6.351,6.931-28.501,1.179-47.644l0,0c-0.074,4.961-1.493,18.061-30.337,31.635
							C1334.666,1791.433,1339.288,1751.957,1310.061,1757.758z"/>
					</g>
				</g>
				<g>
					<path style="fill:#494C7F;" d="M1317.588,1787.189c-1.427,0-2.751-0.912-3.21-2.344c-3.817-11.896-16.377-11.916-16.909-11.918
						c-1.856,0.018-3.386-1.471-3.41-3.327c-0.024-1.856,1.449-3.384,3.306-3.416c6.233-0.122,19.143,3.22,23.436,16.603
						c0.569,1.772-0.408,3.672-2.181,4.24C1318.277,1787.137,1317.929,1787.189,1317.588,1787.189z"/>
				</g>
				<g>
					<path style="fill:#494C7F;" d="M1302.383,1794.494c-1.427,0-2.752-0.912-3.211-2.343
						c-3.816-11.897-16.377-11.917-16.909-11.918c-1.855,0.017-3.385-1.472-3.41-3.327c-0.024-1.857,1.449-3.385,3.306-3.416
						c6.233-0.122,19.144,3.219,23.436,16.602c0.569,1.772-0.408,3.672-2.181,4.24
						C1303.071,1794.441,1302.724,1794.494,1302.383,1794.494z"/>
				</g>
			</g>
			<path style="fill:#F37A50;" d="M1524.624,1787.26l-37.961,15.392l-20.899-32.823c1.501-1.466,5.423-26.617,4.557-44.563
				l60.143,1.505C1529.816,1745.088,1527.799,1769.205,1524.624,1787.26z"/>
			<path style="fill:#201D40;" d="M1559.557,1341.089c-87.42,22.071-209.286,87.787-220.814,101.654
				c-23.812,28.647-30.169,122.133-31.232,287.95h77.797c19.985-130.816,43.129-188.814,44.026-241.459
				c0,0,68.186,0.164,167.684-46.063c49.048-22.788,100-48.958,81.863-93.432
				C1664.432,1314.305,1642.912,1320.043,1559.557,1341.089z"/>
			<path style="fill:#2C2858;" d="M1659.055,1342.189c-73.021,12.505-165.478,103.186-177.006,117.054
				c-23.812,28.647-20.897,120.853-21.961,286.671l77.555,1.963c6.775-86.322,36.715-186.704,32.419-249.466
				c0,0,67.998-19.563,173.196-50.711c57.546-17.04,74.473-27.261,83.102-66.156c2.936-13.234,6.081-43.651-0.197-49.972
				C1798.383,1303.604,1728.174,1330.355,1659.055,1342.189z"/>
			<g>
				<g>
					<path style="fill:#201D40;" d="M1458.055,1817.49c0,0-16.756-20.994-34.192-20.057c0,0-32.268,6.35-41.791,21.602
						c-2.991,4.791-0.35,13.768,1.878,19.441c1.391,3.543,5.045,7.094,15.076,8.791c14.815,2.508,34.343,2.604,68.362-11.408
						c40.811-16.809,48.189-13.223,63.135-20.42c15.492-7.459,7.549-26.557,0.465-45.246
						C1530.988,1770.193,1522.448,1795.439,1458.055,1817.49z"/>
				</g>
				<g>
					<g>
						<path style="fill:#2C2858;" d="M1464.224,1766.548c0,0-17.311,14.048-41.229,23.124
							c-13.381,5.079-49.231,17.305-39.913,41.045c1.391,3.543,5.046,7.092,15.077,8.789c14.815,2.509,34.343,2.604,68.362-11.407
							c40.811-16.808,48.189-13.223,63.135-20.419c15.491-7.459,4.907-28.92-2.177-47.609l0,0
							c0.276,4.953-0.219,18.121-28.036,33.69C1491.137,1798.409,1492.971,1758.707,1464.224,1766.548z"/>
					</g>
				</g>
				<g>
					<path style="fill:#494C7F;" d="M1480.398,1796.234c-1.427,0-2.752-0.912-3.21-2.344c-3.817-11.898-16.377-11.918-16.91-11.918
						c-1.855,0.018-3.385-1.471-3.41-3.328c-0.025-1.857,1.449-3.383,3.305-3.416c6.233-0.121,19.144,3.22,23.437,16.601
						c0.569,1.774-0.408,3.674-2.181,4.242C1481.086,1796.182,1480.739,1796.234,1480.398,1796.234z"/>
				</g>
				<g>
					<path style="fill:#494C7F;" d="M1465.192,1803.539c-1.426,0-2.751-0.912-3.211-2.344
						c-3.816-11.897-16.377-11.917-16.909-11.918c-1.855,0.018-3.385-1.471-3.41-3.327c-0.025-1.856,1.449-3.384,3.306-3.417
						c6.233-0.121,19.143,3.221,23.436,16.601c0.569,1.774-0.408,3.674-2.181,4.242
						C1465.88,1803.486,1465.533,1803.539,1465.192,1803.539z"/>
				</g>
			</g>
			<g>
				<polygon id="v-2_2_" style="fill:#F37A50;" points="1711.025,941.984 1710.99,941.984 1681.589,942.093 1674.93,1011.537 
					1709.252,1029.659 1745.853,1011.742 1739.938,942.093 				"/>
				<g>
					<g>
						<path style="fill:#2C2858;" d="M1728.428,948.383c29.287,2.217,42.931-35.648,42.931-35.648
							c17.724-3.712,13.954-21.358,13.954-21.358c8.357-2.957,19.251-12.53,14.928-28.533c-3.66-13.549-17.05-12.333-19.461-28.282
							c-1.936-12.798,5.945-44.704-35.197-45.387c0,0-2.032-23.854-26.926-28.509c-30.52-5.708-37.216,12.774-50.322,16.601
							c-14.64,4.274-47.037-7.971-49.717,26.458c0,0-21.104,1.398-30.155,17.189c-8.434,14.711-2.345,32.788,4.024,39.257
							c0,0-16.689,6.496-19.894,22.71c-2.148,10.87,2.641,24.594,13.645,30.882c7.002,4.001,13.493,4.122,13.493,4.122
							c6.969,0.832,8.197,19.338,14.445,22.656c10.029,5.329,20.83,8.927,31.773,11.673L1728.428,948.383z"/>
						<path style="fill:#F37A50;" d="M1755.324,886.019c7.928,48.057-21.202,96.701-58.945,102.927
							c-37.743,6.226-69.807-32.324-77.734-80.38c-7.928-48.056,16.243-92.06,53.986-98.286
							C1710.373,804.054,1747.397,837.963,1755.324,886.019z"/>
						<path d="M1639.54,913.269c-0.233,3.666-3.396,6.449-7.062,6.216c-3.667-0.234-6.45-3.395-6.217-7.062
							c0.234-3.668,3.396-6.45,7.063-6.217C1636.99,906.439,1639.773,909.602,1639.54,913.269z"/>
						<path d="M1692.699,904.873c-0.252,3.969-3.675,6.982-7.645,6.729c-3.969-0.252-6.981-3.675-6.729-7.644
							c0.252-3.969,3.676-6.982,7.645-6.729C1689.939,897.48,1692.953,900.904,1692.699,904.873z"/>
						<path style="fill:#DE623C;" d="M1653.68,917.121c-4.025,10.723-9.217,23.864-9.217,23.864s5.514,9.336,18.787,6.799
							c-6.075-1.184-12.382-3.836-11.607-11.772C1652.416,928.076,1653.68,917.121,1653.68,917.121z"/>
						<g>
							<path style="fill:#2C2858;" d="M1701.674,894.378c0.219-0.131,0.425-0.291,0.614-0.477c1.306-1.287,1.319-3.39,0.033-4.694
								c-3.515-3.564-12.456-8.931-21.143-3.731c-1.571,0.972-2.085,2.98-1.144,4.553c0.941,1.573,2.98,2.085,4.553,1.143
								c6.433-3.85,12.941,2.631,13.006,2.697C1698.693,894.983,1700.39,895.156,1701.674,894.378z"/>
						</g>
						<g>
							<path style="fill:#2C2858;" d="M1638.217,897.622c0.406-0.247,0.754-0.601,0.997-1.048c0.728-1.344,0.229-3.022-1.114-3.75
								c-0.211-0.115-5.221-2.773-10.446-0.798c-3.569,1.349-6.252,4.408-7.972,9.093c-0.527,1.435,0.209,3.024,1.643,3.55
								c1.434,0.527,3.023-0.209,3.551-1.643c1.141-3.109,2.734-5.069,4.734-5.825c2.84-1.072,5.825,0.471,5.854,0.487
								C1636.359,898.174,1637.404,898.114,1638.217,897.622z"/>
						</g>
						<path style="fill:#2C2858;" d="M1596.479,854.794l69.619-68.709l94.987,42.737l-8.188,67.405
							c-3.863-30.768-22.299-19.883-32.515-28.435c-10.356-8.669-15.366-22.753-38.062-8.983c0,0-19.559-12.1-28.369,6.731
							c-6.813,14.561-17.145,12.336-27.266,13.578c-11.938,1.463-8.517,12.965-15.855,12.946L1596.479,854.794z"/>
						<g>
							<path style="fill:#F37A50;" d="M1744.018,884.385c-5.641,9.969-3.6,21.791,4.559,26.406
								c8.158,4.616,19.342,0.276,24.982-9.692c5.641-9.968,3.6-21.79-4.559-26.406
								C1760.842,870.077,1749.656,874.417,1744.018,884.385z"/>
							<g>
								<path style="fill:#DE623C;" d="M1757.99,904.542c-0.377-0.024-0.752-0.136-1.1-0.339c-4.979-2.929-7.275-7.592-6.143-12.477
									c1.16-5.001,5.559-8.901,10.459-9.272c1.379-0.103,2.582,0.929,2.686,2.308c0.104,1.379-0.929,2.581-2.308,2.685
									c-2.685,0.204-5.302,2.579-5.958,5.41c-0.631,2.72,0.72,5.215,3.803,7.028c1.192,0.701,1.59,2.236,0.889,3.428
									C1759.822,904.158,1758.906,904.605,1757.99,904.542z"/>
							</g>
						</g>
						<path style="fill:#FFFFFF;" d="M1683.615,961.114c0.688,4.431-3.529,8.763-9.418,9.677
							c-5.889,0.914-11.219-1.937-11.907-6.367c-0.688-4.43,3.528-8.763,9.417-9.677
							C1677.596,953.833,1682.928,956.684,1683.615,961.114z"/>
					</g>
				</g>
			</g>
			<g id="v_62_">
				<path style="fill:#F5A3B7;" d="M1829.796,1338.017c0,0-62.115,15.906-119.774,16.288
					c-57.659-0.424-118.602-21.167-118.602-21.167s7.748-105.892,6.959-146.556c-1.123-46.693,2.992-108.609,2.992-170.317
					c0,0,40.897-6.585,63.97-9.428c3.749-0.466,7.025-0.823,9.587-1.047c0,0,13.145,27.577,70.42,0c3.01-0.3,6.734-0.283,10.9-0.043
					c24.062,1.44,62.814,10.518,62.814,10.518c0,61.543,2.486,121.854,1.654,168.555
					C1823.277,1226.474,1829.796,1338.017,1829.796,1338.017z"/>
			</g>
			<g>
				<path style="fill:#4364CC;" d="M1695.213,1172.99l-4.713,4.573l-129.32-15.215l-124.125-132.64l5.029-4.948
					c0.989-0.972,2.345-1.477,3.728-1.386l130.786,8.447c1.91,0.123,3.688,1.019,4.923,2.482l113.886,134.787
					C1696.377,1170.239,1696.291,1171.942,1695.213,1172.99z"/>
				<path style="fill:#768FDB;" d="M1690.5,1177.563l-135.951-8.781l-117.541-139.116l131.836,8.517
					c2.629,0.171,5.074,1.402,6.773,3.414L1690.5,1177.563z"/>
				<path style="fill:#4364CC;" d="M1570.182,1049.355c2.047,4.293,0.59,8.197-3.254,8.72c-3.844,0.521-8.618-2.536-10.665-6.831
					c-2.046-4.294-0.589-8.198,3.254-8.721C1563.36,1042.001,1568.135,1045.059,1570.182,1049.355z"/>
				<path style="fill:#4364CC;" d="M1550.82,1050.279c0.71,2.844-0.646,5.021-3.031,4.866c-2.384-0.154-4.893-2.584-5.604-5.427
					c-0.709-2.843,0.646-5.022,3.031-4.865C1547.601,1045.008,1550.109,1047.438,1550.82,1050.279z"/>
			</g>
			<g>
				<g>
					<g>
						<g>
							<path style="fill:#F37A50;" d="M1635.928,1148.992c8.986,5.813,36.467,20.548,55.125,34.154l4.997-31.649
								c-15.502-6.289-19.106-40.521-46.96-59.023c-9.498-6.311-13.427-10.058-14.945-9.171c-1.52,0.887-8.909,8.334,4.479,18.152
								c16.803,12.32-3.281,19.983-32.113-14.336c-7.219-8.593-26.96-13.848-24.498-3.644
								C1584.723,1094.716,1595.033,1122.543,1635.928,1148.992z"/>
						</g>
					</g>
				</g>
			</g>
			<g id="c_2_">
				<path id="c_3_" style="fill:#E86686;" d="M1816.953,1202.532c-24.92-18.44-123.1-53.327-123.1-53.327
					c-15.365,17.544-25,40.684-25,40.684c62.771,73.108,167.967,111.161,201.426,95.872
					c30.545-13.959,25.477-226.899-51.218-269.494l-2.659,0.25C1790.109,1061.006,1816.953,1202.532,1816.953,1202.532z"/>
			</g>
			<path style="fill:#E86686;" d="M1756.248,1005.748v0.009c-3.983,6.652-9.621,11.683-17.57,15.681
				c-12.588,6.354-29.695,9.046-40.229,8.224c-8.339-0.657-17.591-4.06-23.519-8.757c-6.294-4.997-9.031-11.364-9.589-14.066
				c3.749-0.466,7.601-1.047,10.161-1.273c0,0,12.57,27.804,69.846,0.227C1748.357,1005.491,1752.082,1005.508,1756.248,1005.748z"
				/>
			<g>
				<g>
					<g>
						<g>
							<path style="fill:#F37A50;" d="M1456.137,1344.326c12.034-4.333,14.11-7.231,22.293-24.721l33.472,17.199
								c-8.649,13.154-5.78,23.944-11.158,31.59c-8.612,12.244-16.624,24.268-34.928,33.685
								c-10.141,5.218-14.461,8.506-15.871,7.455c-1.411-1.051-7.93-9.269,6.466-17.541c18.066-10.381-1.043-20.226-33.507,10.683
								c-8.128,7.737-28.33,10.767-24.752,0.9C1402.095,1392.705,1410.313,1360.823,1456.137,1344.326z"/>
						</g>
					</g>
				</g>
			</g>
		</g>
		<path style="fill:#C4204A;" d="M2077.184,1646.9h-367.512c-24.73,0-44.779-20.049-44.779-44.777V1321.35
			c0-19.229,15.589-34.817,34.818-34.817h387.434c19.229,0,34.816,15.588,34.816,34.817v280.773
			C2121.961,1626.851,2101.914,1646.9,2077.184,1646.9z"/>
		<path style="fill:#A11A3D;" d="M2141.005,1651.244h-326.802c-22.299,0-40.375-18.076-40.375-40.375v-292.942
			c0-17.338,14.055-31.394,31.394-31.394h335.783V1651.244z"/>
	</g>
	<g>
		<path style="fill:#FFFFFF;" d="M2547.54,558.458c-37.152,0-67.379-30.227-67.379-67.379c0-37.153,30.227-67.379,67.379-67.379
			c37.153,0,67.378,30.226,67.378,67.379C2614.918,528.232,2584.693,558.458,2547.54,558.458z M2547.54,442.258
			c-26.92,0-48.82,21.901-48.82,48.821c0,26.919,21.9,48.82,48.82,48.82s48.821-21.9,48.821-48.82
			C2596.361,464.159,2574.46,442.258,2547.54,442.258z"/>
	</g>
	<g>
		<path style="fill:#FFFFFF;" d="M859.512,252.201c-24.435,0-44.314-19.878-44.314-44.313c0-24.435,19.879-44.313,44.314-44.313
			c24.434,0,44.313,19.878,44.313,44.313C903.825,232.322,883.946,252.201,859.512,252.201z M859.512,175.779
			c-17.705,0-32.108,14.404-32.108,32.109c0,17.704,14.404,32.108,32.108,32.108c17.704,0,32.108-14.404,32.108-32.108
			C891.62,190.183,877.216,175.779,859.512,175.779z"/>
	</g>
	<g>
		<path style="fill:#FFFFFF;" d="M182.913,1453.248c-19.116,0-34.667-15.552-34.667-34.668c0-19.115,15.552-34.667,34.667-34.667
			s34.667,15.552,34.667,34.667C217.581,1437.696,202.029,1453.248,182.913,1453.248z M182.913,1393.461
			c-13.852,0-25.119,11.269-25.119,25.119c0,13.851,11.268,25.12,25.119,25.12c13.851,0,25.119-11.27,25.119-25.12
			C208.032,1404.729,196.764,1393.461,182.913,1393.461z"/>
	</g>
	<g>
		<path style="fill:#FFFFFF;" d="M2793.65,1030.924c-19.115,0-34.668-15.553-34.668-34.669c0-19.115,15.553-34.667,34.668-34.667
			s34.668,15.552,34.668,34.667C2828.318,1015.371,2812.766,1030.924,2793.65,1030.924z M2793.65,971.136
			c-13.851,0-25.119,11.268-25.119,25.119c0,13.85,11.269,25.12,25.119,25.12s25.119-11.27,25.119-25.12
			C2818.77,982.405,2807.501,971.136,2793.65,971.136z"/>
	</g>
	
		<ellipse transform="matrix(0.9239 -0.3827 0.3827 0.9239 64.4237 1040.1061)" style="fill:#FFFFFF;" cx="2646.699" cy="358.113" rx="40.662" ry="40.662"/>
	<path style="fill:#FFFFFF;" d="M162.892,1344.043c0,12.699-10.295,22.994-22.994,22.994c-12.699,0-22.994-10.295-22.994-22.994
		c0-12.7,10.295-22.995,22.994-22.995C152.597,1321.048,162.892,1331.343,162.892,1344.043z"/>
	<path style="fill:#FFFFFF;" d="M660.323,685.471c-15.681,15.68-41.103,15.68-56.785,0c-15.681-15.681-15.681-41.104,0-56.785
		c15.681-15.681,41.104-15.681,56.785,0C676.004,644.367,676.004,669.791,660.323,685.471z"/>
	
		<ellipse transform="matrix(0.8281 -0.5606 0.5606 0.8281 -392.3433 281.7513)" style="fill:#E3EAFF;" cx="263.19" cy="780.544" rx="38.468" ry="38.468"/>
	<g>
		<g>
			<path style="fill:#E62552;" d="M462.457,1687.05v18.034h4.911c2.382,0,4.314,1.932,4.314,4.315v0.726
				c0,2.384-1.932,4.313-4.314,4.313H258.114c-2.763,0-5.021-2.244-5.021-5.021v-25.975c0-2.772,2.248-5.021,5.021-5.021h209.254
				c2.382,0,4.314,1.932,4.314,4.314l0,0c0,2.383-1.932,4.314-4.314,4.314H462.457z"/>
			<path style="fill:#FFFFFF;" d="M463.078,1705.08H280.061c-2.023,0-3.665-1.641-3.665-3.664v-10.7
				c0-2.024,1.642-3.665,3.665-3.665h183.017V1705.08z"/>
		</g>
		<g>
			<path style="fill:#3F964F;" d="M234.591,1648.115v19.955h-4.911c-2.383,0-4.314,2.137-4.314,4.773v0.803
				c0,2.639,1.931,4.775,4.314,4.775h209.254c2.764,0,5.021-2.484,5.021-5.557v-28.742c0-3.068-2.249-5.555-5.021-5.555H229.681
				c-2.383,0-4.314,2.137-4.314,4.773l0,0c0,2.635,1.931,4.773,4.314,4.773H234.591z"/>
			<path style="fill:#FFFFFF;" d="M233.971,1668.066h182.826c2.13,0,3.856-1.727,3.856-3.855v-12.24
				c0-2.129-1.726-3.855-3.856-3.855H233.971V1668.066z"/>
		</g>
		<path style="fill:#E62552;" d="M440.866,1620.078H250.054c-4.215,0-7.633-3.418-7.633-7.633v-17.09
			c0-4.215,3.417-7.634,7.633-7.634h190.812c4.215,0,7.633,3.419,7.633,7.634v17.09
			C448.499,1616.66,445.081,1620.078,440.866,1620.078z"/>
		<path style="fill:#4364CC;" d="M456.195,1638.568H261.657c-3.186,0-5.77-2.584-5.77-5.772v-6.949c0-3.188,2.583-5.77,5.77-5.77
			h194.538c3.187,0,5.77,2.582,5.77,5.77v6.949C461.965,1635.984,459.382,1638.568,456.195,1638.568z"/>
	</g>
	<g>
		<g>
			<path style="fill:#E62552;" d="M2202.827,1738.574v22.155h-6.033c-2.926,0-5.299,2.372-5.299,5.3v0.892
				c0,2.927,2.373,5.3,5.299,5.3h257.074c3.396,0,6.17-2.757,6.17-6.169v-31.91c0-3.406-2.763-6.168-6.17-6.168h-257.074
				c-2.926,0-5.299,2.373-5.299,5.299l0,0c0,2.928,2.373,5.301,5.299,5.301H2202.827z"/>
			<path style="fill:#FFFFFF;" d="M2202.065,1760.726h224.84c2.486,0,4.503-2.016,4.503-4.504v-13.145
				c0-2.486-2.017-4.503-4.503-4.503h-224.84V1760.726z"/>
		</g>
		<g>
			<path style="fill:#3F964F;" d="M2482.768,1690.742v24.516h6.032c2.928,0,5.301,2.625,5.301,5.865v0.986
				c0,3.238-2.373,5.865-5.301,5.865h-257.074c-3.395,0-6.168-3.053-6.168-6.826v-35.311c0-3.77,2.762-6.826,6.168-6.826H2488.8
				c2.928,0,5.301,2.627,5.301,5.865l0,0c0,3.239-2.373,5.865-5.301,5.865H2482.768z"/>
			<path style="fill:#FFFFFF;" d="M2483.53,1715.254h-224.607c-2.615,0-4.736-2.121-4.736-4.737v-15.038
				c0-2.615,2.121-4.736,4.736-4.736h224.607V1715.254z"/>
		</g>
		<path style="fill:#E62552;" d="M2229.354,1656.297h234.416c5.18,0,9.378-4.197,9.378-9.377v-20.996
			c0-5.178-4.198-9.377-9.378-9.377h-234.416c-5.18,0-9.378,4.199-9.378,9.377v20.996
			C2219.977,1652.1,2224.175,1656.297,2229.354,1656.297z"/>
		<path style="fill:#4364CC;" d="M2210.521,1679.012h238.995c3.914,0,7.088-3.174,7.088-7.088v-8.537c0-3.916-3.174-7.09-7.088-7.09
			h-238.995c-3.915,0-7.089,3.174-7.089,7.09v8.537C2203.433,1675.838,2206.606,1679.012,2210.521,1679.012z"/>
	</g>
	<g>
		<g>
			<g>
				<path style="fill:#768FDB;" d="M977.24,1266.63h-20.99c-3.347,0-6.06-2.714-6.06-6.059s2.714-6.061,6.06-6.061h14.93v-39.422
					h-14.93c-3.347,0-6.06-2.713-6.06-6.06c0-3.348,2.714-6.061,6.06-6.061h20.99c3.347,0,6.06,2.713,6.06,6.061v51.542
					C983.3,1263.916,980.587,1266.63,977.24,1266.63z"/>
			</g>
			<path style="fill:#768FDB;" d="M950.328,1290.494h-66.943c-3.271,0-5.922-2.651-5.922-5.922v-99.547
				c0-3.27,2.651-5.922,5.922-5.922h66.943c3.27,0,5.922,2.652,5.922,5.922v99.547
				C956.25,1287.843,953.599,1290.494,950.328,1290.494z"/>
		</g>
		<path style="fill:#FFFFFF;" d="M909.161,1168.497c0,0-25.462-10.329-17.584-29.024c7.879-18.699,36.531-16.236,20.235-43.318
			c19.651,10.834,22.605,34.961,7.341,40.869C903.888,1142.934,903.108,1157.892,909.161,1168.497z"/>
		<path style="fill:#FFFFFF;" d="M933.088,1168.497c0,0-18.107-7.345-12.504-20.642c5.603-13.294,25.977-11.544,14.389-30.801
			c13.975,7.702,16.075,24.86,5.221,29.063C929.338,1150.32,928.784,1160.956,933.088,1168.497z"/>
	</g>
</g>
</svg>
