<svg width="55" height="55" viewBox="0 0 55 55" fill="none" xmlns="http://www.w3.org/2000/svg">
    <path
        d="M29.8558 4.58334C32.434 4.59021 33.7425 4.60396 34.8723 4.63604L35.3169 4.65209C35.8302 4.67042 36.3367 4.69334 36.9485 4.72084C39.3869 4.83542 41.0506 5.22042 42.5104 5.78646C44.0229 6.36854 45.2971 7.15688 46.5712 8.42875C47.737 9.57397 48.6388 10.9598 49.2135 12.4896C49.7796 13.9494 50.1646 15.6131 50.2792 18.0538C50.3067 18.6633 50.3296 19.1698 50.3479 19.6854L50.3617 20.13C50.396 21.2575 50.4098 22.566 50.4144 25.1442L50.4167 26.8538V29.8558C50.4222 31.5274 50.4047 33.1989 50.364 34.87L50.3502 35.3146C50.3319 35.8302 50.309 36.3367 50.2815 36.9463C50.1669 39.3869 49.7773 41.0483 49.2135 42.5104C48.6388 44.0402 47.737 45.426 46.5712 46.5713C45.426 47.737 44.0402 48.6388 42.5104 49.2135C41.0506 49.7796 39.3869 50.1646 36.9485 50.2792L35.3169 50.3479L34.8723 50.3617C33.7425 50.3937 32.434 50.4098 29.8558 50.4144L28.1462 50.4167H25.1465C23.4741 50.4226 21.8018 50.405 20.13 50.364L19.6854 50.3502C19.1414 50.3296 18.5975 50.3059 18.0538 50.2792C15.6154 50.1646 13.9517 49.7796 12.4896 49.2135C10.9607 48.6385 9.5756 47.7367 8.43104 46.5713C7.26446 45.4263 6.36192 44.0404 5.78646 42.5104C5.22042 41.0506 4.83542 39.3869 4.72083 36.9463L4.65208 35.3146L4.64063 34.87C4.59838 33.199 4.57928 31.5274 4.58333 29.8558V25.1442C4.57699 23.4726 4.5938 21.8011 4.63375 20.13L4.64979 19.6854C4.66813 19.1698 4.69104 18.6633 4.71854 18.0538C4.83313 15.6131 5.21813 13.9517 5.78417 12.4896C6.36097 10.9592 7.2651 9.57329 8.43333 8.42875C9.57723 7.26355 10.9615 6.36184 12.4896 5.78646C13.9517 5.22042 15.6131 4.83542 18.0538 4.72084C18.6633 4.69334 19.1721 4.67042 19.6854 4.65209L20.13 4.63834C21.8011 4.59762 23.4726 4.58005 25.1442 4.58563L29.8558 4.58334ZM27.5 16.0417C24.4611 16.0417 21.5466 17.2489 19.3977 19.3977C17.2489 21.5466 16.0417 24.4611 16.0417 27.5C16.0417 30.5389 17.2489 33.4534 19.3977 35.6023C21.5466 37.7511 24.4611 38.9583 27.5 38.9583C30.5389 38.9583 33.4534 37.7511 35.6023 35.6023C37.7511 33.4534 38.9583 30.5389 38.9583 27.5C38.9583 24.4611 37.7511 21.5466 35.6023 19.3977C33.4534 17.2489 30.5389 16.0417 27.5 16.0417ZM27.5 20.625C28.4028 20.6249 29.2969 20.8025 30.131 21.1479C30.9652 21.4933 31.7232 21.9995 32.3617 22.6378C33.0002 23.2761 33.5067 24.0339 33.8524 24.868C34.198 25.7021 34.376 26.596 34.3761 27.4989C34.3763 28.4017 34.1986 29.2957 33.8533 30.1299C33.5079 30.9641 33.0016 31.722 32.3633 32.3605C31.725 32.9991 30.9672 33.5056 30.1332 33.8512C29.2991 34.1969 28.4051 34.3748 27.5023 34.375C25.6789 34.375 23.9302 33.6507 22.6409 32.3614C21.3516 31.072 20.6273 29.3234 20.6273 27.5C20.6273 25.6766 21.3516 23.928 22.6409 22.6386C23.9302 21.3493 25.6789 20.625 27.5023 20.625M39.5335 12.6042C38.7738 12.6042 38.0452 12.906 37.508 13.4432C36.9708 13.9804 36.669 14.709 36.669 15.4688C36.669 16.2285 36.9708 16.9571 37.508 17.4943C38.0452 18.0315 38.7738 18.3333 39.5335 18.3333C40.2933 18.3333 41.0219 18.0315 41.5591 17.4943C42.0963 16.9571 42.3981 16.2285 42.3981 15.4688C42.3981 14.709 42.0963 13.9804 41.5591 13.4432C41.0219 12.906 40.2933 12.6042 39.5335 12.6042Z"
        fill="black" />
</svg>